<svg width="64" height="64" viewBox="0 0 64 64" fill="none" xmlns="http://www.w3.org/2000/svg">
<path d="M38.7498 50.0869L37.7676 54.3531C37.7676 55.5523 41.7095 56.5251 46.5711 56.5251C51.4328 56.5251 55.3747 55.5523 55.3747 54.3531L54.7721 50.0869" stroke="#C9FF00" stroke-width="0.91" stroke-linecap="round" stroke-linejoin="round"/>
<path d="M55.6729 55.1938C54.8286 56.3081 51.0742 57.1489 46.5722 57.1489C42.0702 57.1489 38.3854 56.3247 37.4951 55.2257" stroke="#C9FF00" stroke-width="0.91" stroke-linecap="round" stroke-linejoin="round"/>
<path d="M57.2733 56.2656C57.3169 56.3541 57.3393 56.4449 57.3393 56.5356C57.3393 57.8775 52.6746 59.1215 46.7281 59.1215C40.7817 59.1215 35.8057 57.8775 35.8057 56.5356C35.8057 56.4519 35.8245 56.3694 35.8611 56.2868" stroke="#C9FF00" stroke-width="0.91" stroke-linecap="round" stroke-linejoin="round"/>
<path d="M46.7888 50.3333C42.2125 50.2613 40.3058 49.5668 40.3058 48.8523C40.3058 48.1377 40.8459 47.6495 41.4213 47.3182C41.9967 46.9868 43.0945 46.6555 43.0945 46.6555C42.4554 46.4963 41.5463 45.5105 44.1581 45.1568C46.2676 44.1474 45.2736 41.6017 45.2736 41.6017C45.2736 41.6017 44.3668 41.1489 44.3668 40.3647C44.3668 39.5806 45.5165 39.7893 45.5165 39.1974C45.5165 38.6054 44.7666 38.5182 44.7666 38.5182L44.6274 38.1173C44.6274 38.1173 41.6925 38.1692 40.3224 36.9499C39.0501 35.8167 40.8978 34.6494 40.8978 34.6494C40.5263 34.1848 40.4568 33.8829 40.6891 33.7426C40.5794 33.6966 40.2952 33.2745 40.34 31.5812C40.0087 29.908 40.228 28.8102 40.4792 28.3221C40.7138 27.8669 40.6148 27.242 39.9391 26.0215C39.3991 25.0452 38.7022 25.1678 37.3603 23.4946C36.0185 21.8214 36.3321 21.0892 36.7153 20.6022C37.0986 20.1152 38.2317 20.0091 37.8485 19.4525C36.9252 19.4348 36.3675 18.686 37.1858 18.633C38.4558 18.5516 38.3013 17.797 38.3013 17.797C38.3013 17.797 37.4122 17.5352 37.4122 16.316C37.4122 15.3231 38.4758 14.085 40.3047 13.9977C42.1335 13.9105 42.5356 13.8409 43.2325 13.0214C44.1605 11.9307 43.5285 10.6159 43.5285 10.6159C43.203 10.1431 43.3209 9.77757 43.8775 9.51815C44.0591 9.05357 44.5626 8.69157 45.7252 8.54182C45.7252 8.54182 45.5861 8.14091 46.0035 7.87914C46.4209 7.61736 46.5094 7.25183 46.5094 7.25183C46.5094 7.25183 45.6898 6.85092 45.6898 6.03141C45.6898 5.2119 46.3172 4.61996 46.3172 4.61996L46.7876 3.85352" stroke="#C9FF00" stroke-width="0.91" stroke-linecap="round" stroke-linejoin="round"/>
<path d="M47.0143 36.3042C48.7832 36.3042 50.2171 34.6313 50.2171 32.5676C50.2171 30.504 48.7832 28.8311 47.0143 28.8311C45.2455 28.8311 43.8115 30.504 43.8115 32.5676C43.8115 34.6313 45.2455 36.3042 47.0143 36.3042Z" stroke="#C9FF00" stroke-width="0.91" stroke-linecap="round" stroke-linejoin="round"/>
<path d="M47.0141 34.1691C48.1933 34.1691 49.1493 33.2131 49.1493 32.0339C49.1493 30.8546 48.1933 29.8987 47.0141 29.8987C45.8349 29.8987 44.8789 30.8546 44.8789 32.0339C44.8789 33.2131 45.8349 34.1691 47.0141 34.1691Z" stroke="#C9FF00" stroke-width="0.6" stroke-linecap="round" stroke-linejoin="round"/>
<path d="M37.1875 18.6333C36.9399 17.9211 36.0189 18.3362 36.0189 18.3362C35.848 18.0803 35.6074 18.118 35.3515 18.2277C33.9802 17.3079 33.6913 19.2382 34.7738 18.967C34.4825 19.5943 33.9979 20.2664 33.1866 20.2664C33.584 19.5625 32.6088 18.4989 31.5629 19.3467C30.1055 20.5282 31.7799 22.238 33.1689 23.4784C34.7761 24.9146 38.0046 28.675 37.0837 30.0817C37.2523 30.3729 37.5117 30.4331 37.9858 29.9555C38.6355 31.341 39.1154 32.8892 39.2486 34.2311C39.2486 34.2311 38.2381 34.3396 38.9597 35.5848C39.6814 36.83 39.9526 37.4608 39.8983 35.4409C39.8441 33.421 39.2852 30.1548 37.0472 26.6551C34.8091 23.1554 34.3764 22.9926 34.3764 22.9926C35.2324 22.6672 35.3409 21.7298 34.683 20.1603C35.2938 19.9999 35.7135 19.6545 35.8739 19.0602C36.1746 18.6993 36.4753 18.4753 36.776 18.789" stroke="#C9FF00" stroke-width="0.91" stroke-linecap="round" stroke-linejoin="round"/>
<path d="M46.7979 50.3394C51.3741 50.2674 53.2808 49.5729 53.2808 48.8584C53.2808 48.1438 52.7408 47.6556 52.1653 47.3243C51.5899 46.9929 50.4921 46.6616 50.4921 46.6616C51.1312 46.5024 52.0404 45.5166 49.4285 45.1629C47.319 44.1535 48.3131 41.6078 48.3131 41.6078C48.3131 41.6078 49.2198 41.155 49.2198 40.3708C49.2198 39.5867 48.0702 39.7954 48.0702 39.2035C48.0702 38.6115 48.8201 38.5243 48.8201 38.5243L48.9592 38.1234C48.9592 38.1234 51.8941 38.1753 53.2643 36.956C54.5366 35.8228 52.6889 34.6555 52.6889 34.6555C53.0603 34.1909 53.1299 33.889 52.8976 33.7487C53.0073 33.7027 53.2914 33.2806 53.2466 31.5873C53.578 29.9141 53.3586 28.8163 53.1075 28.3282C52.8728 27.873 52.9719 27.2481 53.6475 26.0276C54.1876 25.0513 54.8845 25.1739 56.2263 23.5007C57.6095 21.7768 57.2546 21.0953 56.8713 20.6083C56.5034 20.139 55.3549 20.0152 55.7382 19.4586C56.6614 19.4409 57.2192 18.6922 56.4009 18.6391C55.1309 18.5577 55.2854 17.8031 55.2854 17.8031C55.2854 17.8031 56.1745 17.5413 56.1745 16.3221C56.1745 15.3292 55.1109 14.0911 53.282 14.0039C51.4531 13.9166 51.051 13.847 50.3542 13.0275C49.4262 11.9368 50.0582 10.622 50.0582 10.622C50.3836 10.1492 50.2657 9.78367 49.7092 9.52426C49.5276 9.05967 49.0241 8.69767 47.8614 8.54792C47.8614 8.54792 48.0006 8.14701 47.5832 7.88524C47.1657 7.62347 47.0773 7.25793 47.0773 7.25793C47.0773 7.25793 47.8968 6.85702 47.8968 6.03751C47.8968 5.218 47.2695 4.62607 47.2695 4.62607L46.799 3.85962" stroke="#C9FF00" stroke-width="0.91" stroke-linecap="round" stroke-linejoin="round"/>
<path d="M56.3992 18.6392C56.6468 17.927 57.5678 18.342 57.5678 18.342C57.7387 18.0861 57.9793 18.1239 58.2352 18.2335C59.6065 17.3138 59.8954 19.2441 58.8129 18.9729C59.1042 19.6002 59.5888 20.2723 60.4001 20.2723C60.0027 19.5683 60.9779 18.5047 62.0238 19.3526C63.4812 20.5341 61.8068 22.2438 60.4178 23.4843C58.8106 24.9205 55.5821 28.6808 56.503 30.0875C56.3344 30.3788 56.075 30.4389 55.6009 29.9614C54.9512 31.3469 54.4713 32.8951 54.3381 34.237C54.3381 34.237 55.3486 34.3455 54.627 35.5906C53.9053 36.8358 53.6341 37.4667 53.6884 35.4468C53.7426 33.4269 54.3015 30.1606 56.5395 26.6609C58.7764 23.1612 59.2103 22.9985 59.2103 22.9985C58.3542 22.673 58.2458 21.7356 58.9037 20.1662C58.2929 20.0058 57.8732 19.6603 57.7128 19.066C57.4121 18.7052 57.1114 18.4812 56.8107 18.7948" stroke="#C9FF00" stroke-width="0.91" stroke-linecap="round" stroke-linejoin="round"/>
<path d="M55.0241 54.9629C56.5381 55.4723 57.4437 56.1208 57.4437 56.8271C57.4437 58.4638 52.5762 59.7915 46.572 59.7915C40.5677 59.7915 35.7002 58.465 35.7002 56.8271C35.7002 56.1291 36.5857 55.4876 38.0656 54.9806" stroke="#C9FF00" stroke-width="0.91" stroke-linecap="round" stroke-linejoin="round"/>
<path d="M54.4117 49.6106C54.6463 49.7615 54.7713 49.9219 54.7713 50.0882C54.7713 50.9737 51.1843 51.693 46.7602 51.693C42.336 51.693 38.749 50.9749 38.749 50.0882C38.749 49.9313 38.861 49.7804 39.0686 49.6377" stroke="#C9FF00" stroke-width="0.91" stroke-linecap="round" stroke-linejoin="round"/>
<path d="M53.2344 48.6979C53.9973 48.9467 54.4407 49.2438 54.4407 49.561C54.4407 50.4466 51.0023 51.1658 46.7609 51.1658C42.5195 51.1658 39.0811 50.4477 39.0811 49.561C39.0811 49.2415 39.5268 48.9443 40.2956 48.6943" stroke="#C9FF00" stroke-width="0.91" stroke-linecap="round" stroke-linejoin="round"/>
<path d="M49.6544 39.944C50.135 39.944 50.5246 39.5544 50.5246 39.0738C50.5246 38.5932 50.135 38.2036 49.6544 38.2036C49.1738 38.2036 48.7842 38.5932 48.7842 39.0738C48.7842 39.5544 49.1738 39.944 49.6544 39.944Z" stroke="#C9FF00" stroke-width="0.91" stroke-linecap="round" stroke-linejoin="round"/>
<path d="M43.7989 39.944C44.2795 39.944 44.6691 39.5544 44.6691 39.0738C44.6691 38.5932 44.2795 38.2036 43.7989 38.2036C43.3183 38.2036 42.9287 38.5932 42.9287 39.0738C42.9287 39.5544 43.3183 39.944 43.7989 39.944Z" stroke="#C9FF00" stroke-width="0.91" stroke-linecap="round" stroke-linejoin="round"/>
<path d="M44.3677 40.3647C43.4126 40.3293 42.3313 39.9626 42.5436 40.8517C42.7558 41.7408 43.2393 41.9342 43.606 41.8174C43.9727 41.7007 43.7027 40.9283 44.4561 40.8517" stroke="#C9FF00" stroke-width="0.91" stroke-linecap="round" stroke-linejoin="round"/>
<path d="M43.6055 41.8178C44.0111 42.5913 44.8035 42.1845 44.8613 41.8178C44.8955 41.6043 44.7775 41.3921 44.6172 41.3485C44.333 41.2706 44.1608 41.6338 44.3731 41.7576" stroke="#C9FF00" stroke-width="0.91" stroke-linecap="round" stroke-linejoin="round"/>
<path d="M44.1278 42.2505C44.8683 42.5854 44.8424 43.6442 44.2634 43.8247C43.5099 44.0605 43.6455 45.262 44.4757 44.9661" stroke="#C9FF00" stroke-width="0.91" stroke-linecap="round" stroke-linejoin="round"/>
<path d="M49.2242 40.3647C50.1793 40.3293 51.2606 39.9626 51.0483 40.8517C50.8361 41.7408 50.3526 41.9342 49.9859 41.8174C49.6192 41.7007 49.8892 40.9283 49.1357 40.8517" stroke="#C9FF00" stroke-width="0.91" stroke-linecap="round" stroke-linejoin="round"/>
<path d="M49.9863 41.8178C49.5807 42.5913 48.7883 42.1845 48.7305 41.8178C48.6963 41.6043 48.8143 41.3921 48.9746 41.3485C49.2588 41.2706 49.431 41.6338 49.2187 41.7576" stroke="#C9FF00" stroke-width="0.91" stroke-linecap="round" stroke-linejoin="round"/>
<path d="M49.4638 42.2505C48.7233 42.5854 48.7493 43.6442 49.3282 43.8247C50.0817 44.0605 49.9461 45.262 49.116 44.9661" stroke="#C9FF00" stroke-width="0.91" stroke-linecap="round" stroke-linejoin="round"/>
<path d="M50.4915 46.6619C47.941 47.117 45.4778 47.1005 43.0947 46.6619" stroke="#C9FF00" stroke-width="0.91" stroke-linecap="round" stroke-linejoin="round"/>
<path d="M55.6764 19.4753C49.5495 20.1522 43.6349 20.1274 37.9102 19.4753" stroke="#C9FF00" stroke-width="0.91" stroke-linecap="round" stroke-linejoin="round"/>
<path d="M55.6764 18.4832C49.5495 19.3156 43.6349 19.285 37.9102 18.4832" stroke="#C9FF00" stroke-width="0.91" stroke-linecap="round" stroke-linejoin="round"/>
<path d="M49.8896 11.0854H43.6602" stroke="#C9FF00" stroke-width="0.91" stroke-linecap="round" stroke-linejoin="round"/>
<path d="M46.7828 3.84076C46.9573 3.84076 47.0988 3.69928 47.0988 3.52475C47.0988 3.35022 46.9573 3.20874 46.7828 3.20874C46.6083 3.20874 46.4668 3.35022 46.4668 3.52475C46.4668 3.69928 46.6083 3.84076 46.7828 3.84076Z" stroke="#C9FF00" stroke-width="0.91" stroke-linecap="round" stroke-linejoin="round"/>
<path d="M46.8221 20.3113C42.7446 20.3113 42.3814 23.1566 44.4355 24.7685C46.4895 26.3804 46.7749 28.2458 46.7749 28.2458" stroke="#C9FF00" stroke-width="0.91" stroke-linecap="round" stroke-linejoin="round"/>
<path d="M46.7832 20.3113C50.8607 20.3113 51.2038 23.1566 49.1486 24.7685C47.0933 26.3804 46.8091 28.2458 46.8091 28.2458" stroke="#C9FF00" stroke-width="0.91" stroke-linecap="round" stroke-linejoin="round"/>
<path d="M53.0975 20.3113C55.6197 20.3113 54.8839 23.1566 53.6128 24.7685C52.3416 26.3804 51.6259 27.0525 51.9348 28.2458" stroke="#C9FF00" stroke-width="0.91" stroke-linecap="round" stroke-linejoin="round"/>
<path d="M40.3884 20.3113C37.8662 20.3113 38.602 23.1566 39.8731 24.7685C41.1442 26.3804 41.7078 26.7801 41.551 28.2458" stroke="#C9FF00" stroke-width="0.91" stroke-linecap="round" stroke-linejoin="round"/>
</svg>
