<svg width="64" height="64" viewBox="0 0 64 64" fill="none" xmlns="http://www.w3.org/2000/svg">
<path d="M54.2512 17.3432C54.2512 17.3432 54.2512 16.1842 54.5402 14.211C54.7126 11.0251 50.7671 6.43481 50.7671 6.43481C50.7671 6.43481 53.2535 6.61121 58.8291 9.55967C64.4047 12.5081 63.1165 13.595 61.4024 18.9492C59.6884 24.3033 57.028 35.5545 56.8571 43.7798C56.6861 52.0051 57.8858 55.0309 57.8858 57.1259C57.8858 59.2209 44.0293 58.5967 44.2497 56.5044C44.7641 51.6157 45.8798 47.8911 45.9653 43.2357C46.0508 38.5803 46.4752 32.2166 44.2482 25.3888C42.0213 18.5611 40.1318 10.8785 41.4185 9.32629C42.7051 7.77404 49.7369 6.43481 49.7369 6.43481C49.7369 6.43481 46.3927 10.8785 46.3057 14.5258" stroke="#D1FF00" stroke-width="0.9" stroke-miterlimit="10" stroke-linejoin="round"/>
<path d="M41.4154 9.32544C40.0432 12.5073 45.4464 12.5846 46.9895 15.5331C48.5326 18.4816 49.1339 24.6892 50.2482 28.4911C51.3624 32.2931 51.4494 43.0788 51.2769 46.6487" stroke="#D1FF00" stroke-width="0.9" stroke-miterlimit="10" stroke-linejoin="round"/>
<path d="M53.3367 46.6488C52.5644 34.0001 54.6233 30.4316 56.1665 25.0001C57.7096 19.5685 58.5674 16.6974 60.112 15.5332C61.6566 14.369 63.6316 12.6472 56.6403 8.46533" stroke="#D1FF00" stroke-width="0.9" stroke-miterlimit="10" stroke-linejoin="round"/>
<path d="M49.9961 27.5587L52.9564 17.4283C53.0748 17.0226 53.5262 16.7757 53.9776 16.8679L54.5684 16.9887C54.8519 17.047 55.0543 17.2723 55.0603 17.5355L55.2493 27.9901" stroke="#D1FF00" stroke-width="0.9" stroke-miterlimit="10" stroke-linejoin="round"/>
<path d="M56.8464 46.3454C52.6264 46.9248 50.0006 46.7525 45.7852 46.1025" stroke="#D1FF00" stroke-width="0.9" stroke-miterlimit="10" stroke-linejoin="round"/>
<path d="M42.1406 18.1489C43.2309 20.5519 44.54 20.689 45.3963 21.6917C46.2526 22.6944 46.2736 24.2887 46.2736 24.2887C46.2736 24.2887 44.4066 23.4068 43.1139 21.7283" stroke="#D1FF00" stroke-width="0.9" stroke-miterlimit="10" stroke-linejoin="round"/>
<path d="M43.793 23.9824C44.8832 26.3854 45.6585 26.3814 46.5148 27.3841C47.3711 28.3868 47.2841 29.9703 47.2841 29.9703C47.2841 29.9703 46.2224 29.5469 44.9282 27.8698" stroke="#D1FF00" stroke-width="0.9" stroke-miterlimit="10" stroke-linejoin="round"/>
<path d="M45.5137 30.7075C45.8466 31.4077 46.4914 31.9572 47.3477 32.9599C48.204 33.9626 48.117 35.5461 48.117 35.5461C48.117 35.5461 47.1468 35.1553 45.8526 33.4782" stroke="#D1FF00" stroke-width="0.9" stroke-miterlimit="10" stroke-linejoin="round"/>
</svg>
