<svg width="64" height="64" viewBox="0 0 64 64" fill="none" xmlns="http://www.w3.org/2000/svg">
<path d="M45.8579 61C45.8579 61 32.2193 60.8137 33.896 58.3489C35.8527 55.4737 36.0247 53.3372 36.7985 52.7314C37.885 51.8807 43.7201 52.5294 44.2164 48.1274C44.6138 44.5969 43.0244 44.395 43.47 43.9065C43.4035 43.7879 43.3253 43.5638 43.9676 43.0909C41.8402 43.2277 37.3678 40.987 37.7951 40.501C37.3222 40.0503 36.8037 39.2022 36.2018 37.9594C33.6641 32.7092 37.5033 29.2348 36.8884 24.6503C36.6409 22.8082 35.8032 19.8835 34.1109 17.9125C33.5911 17.5203 33.3592 17.1438 33.9611 16.809C33.7396 16.5133 33.625 16.2358 33.9611 16.0417C33.9611 16.0417 33.4126 14.778 34.9564 14.2673C35.8827 13.1704 38.6784 14.0849 42.9215 9.42366C44.5278 7.87467 45.1714 6.13809 45.1714 6.13809C44.8027 5.66259 44.9512 5.47499 45.6143 5.28478C45.3993 4.97342 45.3055 4.70505 45.6325 4.5852C45.6325 4.5852 45.5492 4.46925 45.5948 4.33377C45.4879 4.27514 45.2626 4.16962 45.0737 3.93903C45.0176 1.98489 46.1901 1 46.1901 1" stroke="#D2FF00" stroke-miterlimit="10" stroke-linejoin="round"/>
<path d="M45.8351 61C45.8351 61 59.4737 60.8137 57.7971 58.3489C55.8403 55.4737 55.6684 53.3372 54.8945 52.7314C53.808 51.8807 47.973 52.5294 47.4766 48.1274C47.0793 44.5969 48.6686 44.395 48.2231 43.9065C48.2895 43.7879 48.3677 43.5638 47.7254 43.0909C49.8529 43.2277 54.3252 40.987 53.8979 40.501C54.3708 40.0503 54.8893 39.2022 55.4912 37.9594C58.029 32.7092 54.1897 29.2348 54.8047 24.6503C55.0522 22.8082 55.8899 19.8835 57.5821 17.9125C58.1019 17.5203 58.3338 17.1438 57.732 16.809C57.9534 16.5133 58.0681 16.2358 57.732 16.0417C57.732 16.0417 58.2804 14.778 56.7366 14.2673C55.8104 13.1704 53.0147 14.0849 48.7716 9.42366C47.1653 7.87467 46.5217 6.13809 46.5217 6.13809C46.8904 5.66259 46.7419 5.47499 46.0788 5.28478C46.2937 4.97342 46.3875 4.70505 46.0605 4.5852C46.0605 4.5852 46.1439 4.46925 46.0983 4.33377C46.2051 4.27514 46.4305 4.16962 46.6194 3.93903C46.6754 1.98489 45.5029 1 45.5029 1" stroke="#D2FF00" stroke-miterlimit="10" stroke-linejoin="round"/>
<path d="M48.2245 43.9065C46.3446 44.1605 44.6341 44.1097 43.4707 43.9065" stroke="#D2FF00" stroke-miterlimit="10" stroke-linejoin="round"/>
<path d="M55.0718 52.9123C55.6541 54.5434 35.7597 54.434 36.7328 52.812" stroke="#D2FF00" stroke-miterlimit="10" stroke-linejoin="round"/>
<path d="M57.7393 16.8143C55.4178 15.2757 36.5303 15.3473 33.9014 16.8507" stroke="#D2FF00" stroke-miterlimit="10" stroke-linejoin="round"/>
<path d="M56.7379 14.2815C54.2992 13.156 37.2747 13.3865 34.8789 14.292" stroke="#D2FF00" stroke-miterlimit="10" stroke-linejoin="round"/>
<path d="M55.4058 21.99C53.268 20.8645 38.3501 21.095 36.25 22.0005" stroke="#D2FF00" stroke-miterlimit="10" stroke-linejoin="round"/>
<path d="M56.1442 31.852C53.8409 32.9776 37.7714 32.747 35.5098 31.8416" stroke="#D2FF00" stroke-miterlimit="10" stroke-linejoin="round"/>
<path d="M55.8939 37.0524C53.6467 38.1506 37.9679 37.9253 35.7598 37.042" stroke="#D2FF00" stroke-miterlimit="10" stroke-linejoin="round"/>
<path d="M53.959 40.4631C52.1442 41.5613 39.4788 41.3359 37.6953 40.4526" stroke="#D2FF00" stroke-miterlimit="10" stroke-linejoin="round"/>
<path d="M43.477 24.891C45.0612 24.5627 47.5143 24.8467 47.5143 24.8467C47.5143 24.8467 47.6341 28.6 45.4064 30.0643C43.1787 28.2248 43.4783 24.891 43.4783 24.891H43.477Z" stroke="#D2FF00" stroke-miterlimit="10" stroke-linejoin="round"/>
<path d="M34.7032 18.8112C31.2861 17.6882 28.9372 19.5355 28.7287 22.683C28.562 25.2156 29.8035 26.5548 32.1224 28.5142C34.4401 30.4735 35.4914 32.4811 34.6081 33.604C33.7248 34.727 31.4163 34.4873 31.6443 33.1494C32.6722 33.8907 33.8564 32.4732 32.9588 31.5965C32 30.6598 30.8132 31.9052 30.9513 32.9592C31.1063 34.1434 31.501 34.3219 33.2689 35.3484C35.0367 36.375 35.3728 36.8623 35.0133 38.0973C36.6313 35.7744 34.2967 34.5368 34.2967 34.5368C34.2967 34.5368 37.2436 32.9019 34.1534 29.1121C31.2027 25.493 29.0154 23.6288 30.9995 21.1067C32.6722 18.9792 35.9851 21.4245 36.3681 22.2609" stroke="#D2FF00" stroke-miterlimit="10" stroke-linejoin="round"/>
<path d="M57.0057 18.8112C60.4229 17.6882 62.7718 19.5355 62.9802 22.683C63.147 25.2156 61.9054 26.5548 59.5865 28.5142C57.2689 30.4735 56.2176 32.4811 57.1009 33.604C57.9854 34.727 60.2926 34.4873 60.0646 33.1494C59.0368 33.8907 57.8525 32.4732 58.7501 31.5965C59.709 30.6598 60.8958 31.9052 60.7577 32.9592C60.6027 34.1434 60.2079 34.3219 58.4401 35.3484C56.6722 36.3763 56.3361 36.8623 56.6957 38.0973C55.0777 35.7744 57.4122 34.5368 57.4122 34.5368C57.4122 34.5368 54.4654 32.9019 57.5555 29.1121C60.5063 25.493 62.6936 23.6288 60.7095 21.1067C59.0368 18.9792 55.7238 21.4245 55.3408 22.2609" stroke="#D2FF00" stroke-miterlimit="10" stroke-linejoin="round"/>
</svg>
