<svg width="64" height="64" viewBox="0 0 64 64" fill="none" xmlns="http://www.w3.org/2000/svg">
<path d="M39.5 57.5C52.4787 57.5 63 46.9787 63 34C63 21.0213 52.4787 10.5 39.5 10.5C26.5213 10.5 16 21.0213 16 34C16 46.9787 26.5213 57.5 39.5 57.5Z" stroke="#D2FF00" stroke-miterlimit="10"/>
<path d="M39.4997 49.1921C49.2746 49.1921 57.1987 41.268 57.1987 31.4931C57.1987 21.7183 49.2746 13.7942 39.4997 13.7942C29.7249 13.7942 21.8008 21.7183 21.8008 31.4931C21.8008 41.268 29.7249 49.1921 39.4997 49.1921Z" stroke="#D2FF00" stroke-miterlimit="10"/>
<path d="M39.4995 50.042C50.1771 50.042 58.833 41.3861 58.833 30.7085C58.833 20.0309 50.1771 11.375 39.4995 11.375C28.8219 11.375 20.166 20.0309 20.166 30.7085C20.166 41.3861 28.8219 50.042 39.4995 50.042Z" stroke="#D2FF00" stroke-miterlimit="10"/>
</svg>
