<svg width="64" height="64" viewBox="0 0 64 64" fill="none" xmlns="http://www.w3.org/2000/svg">
<path d="M45.5553 51.1619H53.149C53.6543 51.1619 54.1063 51.4474 54.2781 51.8745L57.4201 59.7032C57.6497 60.2743 57.179 60.8779 56.5018 60.8779H42.1953C41.5036 60.8779 41.0329 60.2496 41.2899 59.6733L44.4406 51.8382C44.624 51.4293 45.0644 51.1619 45.5539 51.1619H45.5553Z" stroke="#C9FF00" stroke-linecap="round" stroke-linejoin="round"/>
<path d="M48.4806 51.0477H50.0025C51.0811 51.0477 51.9215 50.2143 51.8247 49.2485C51.6269 47.2625 51.4421 43.5967 52.899 41.2122C55.1515 37.5244 55.9558 36.2224 58.2083 33.6912C59.9801 31.7012 61.8499 26.2688 62.569 24.0374C62.7625 23.4364 62.5849 22.7887 62.1041 22.337L61.3821 21.6581C61.2031 21.4906 61.0977 21.2712 61.0847 21.0389L60.9446 18.5777L53.1416 11.4903L51.9908 11.3657C51.4695 11.3099 51.0392 10.9762 50.8991 10.5219L49.7671 6.8406C49.2819 5.70219 47.812 5.73075 47.3066 6.86137L44.5343 13.8761L42.1229 16.85C41.8486 17.1888 41.7634 17.6263 41.9063 18.0261C42.2861 19.0879 43.3676 21.0441 46.2237 21.2531C48.3881 21.4114 49.8003 22.1371 50.6335 22.7588C51.2558 23.2235 51.4233 24.0193 51.0291 24.6553L45.6605 33.3303C45.6605 33.3303 44.1314 33.8366 44.1314 36.3678C44.1314 38.899 44.4534 39.6947 44.4534 39.6947L46.706 45.6243L46.6496 49.3809C46.6366 50.2987 47.4597 51.049 48.4806 51.049V51.0477Z" stroke="#C9FF00" stroke-linecap="round" stroke-linejoin="round"/>
<path d="M48.4816 49.4603C48.473 49.4603 48.4542 49.4603 48.4354 49.4435C48.4167 49.4266 48.4167 49.4097 48.4167 49.4019L48.4759 45.3714L46.1309 39.1978C46.1078 39.1173 45.8984 38.3463 45.8984 36.368C45.8984 35.2439 46.284 34.8635 46.3865 34.7831L46.8861 34.6182L52.5737 25.4279C53.3795 24.1259 53.0387 22.4903 51.7623 21.5376C50.7645 20.7925 49.0188 19.8656 46.3677 19.6709C45.0407 19.5736 44.1238 18.9025 43.6387 17.6771L46.1136 14.6266L48.4845 8.62695L49.1978 10.9453C49.5299 12.0253 50.545 12.8093 51.7825 12.943L52.3211 13.0014L59.2173 19.2646L59.3227 21.1209C59.3573 21.7323 59.636 22.3138 60.1068 22.7564L60.8287 23.4353C60.8749 23.4795 60.8923 23.5392 60.8735 23.5963C59.4541 28.0058 57.9048 31.4937 56.8305 32.6997C54.4523 35.3724 53.5441 36.8587 51.3522 40.4491C50.1104 42.4832 49.6772 45.4908 50.0671 49.3915C50.0671 49.4019 50.07 49.4214 50.0483 49.4435C50.0295 49.4616 50.0136 49.4616 50.0035 49.4616H48.4816V49.4603Z" stroke="#C9FF00" stroke-width="0.6" stroke-linecap="round" stroke-linejoin="round"/>
<path d="M47.8322 38.76C47.799 38.6095 47.6647 37.9007 47.6647 36.3677C47.6647 36.2301 47.6734 36.1211 47.6835 36.0341C47.9969 35.8913 48.2568 35.668 48.4286 35.3903L54.1163 26.1999C55.3349 24.2308 54.8194 21.7553 52.8889 20.3158C51.6948 19.4253 49.6198 18.3155 46.5096 18.0883C46.202 18.0662 45.9421 17.9987 45.7227 17.8027L47.5406 15.5622C47.6402 15.4389 47.7211 15.3026 47.7774 15.1585L48.5759 13.1375C49.3224 13.8748 50.3461 14.3719 51.4955 14.5121L57.4835 19.951L57.5543 21.2011C57.6106 22.1928 58.0625 23.1352 58.8264 23.853L58.9159 23.9374C57.4893 28.2093 56.1623 30.9041 55.4476 31.7063C52.9741 34.4868 51.9792 36.1146 49.8003 39.6817C49.4466 40.2606 49.1506 40.9019 48.9109 41.6041L47.8294 38.7587L47.8322 38.76Z" stroke="#C9FF00" stroke-width="0.6" stroke-linecap="round" stroke-linejoin="round"/>
<path d="M45.4883 60.7861L47.1806 51.1272" stroke="#C9FF00" stroke-linecap="round" stroke-linejoin="round"/>
<path d="M52.892 60.7861L51.1982 51.1272" stroke="#C9FF00" stroke-linecap="round" stroke-linejoin="round"/>
</svg>
