<svg width="64" height="64" viewBox="0 0 64 64" fill="none" xmlns="http://www.w3.org/2000/svg">
<path d="M49.44 59H52.1734C53.1136 59 54.0102 58.5989 54.6452 57.8928L57.295 54.9544C58.2882 53.8532 58.5544 52.2609 57.9771 50.8859L51.589 35.6773C50.9752 34.2796 49.9019 33.1448 48.5529 32.4699L46.2366 31.3087C45.5603 30.9701 45.3777 30.073 45.8654 29.4882L48.3632 26.4933C49.0406 25.75 50.2565 26.055 50.5181 27.0349L51.6102 32.1013C51.7752 32.7197 52.0485 33.3021 52.4173 33.8208L53.3752 35.1658C54.4402 36.662 56.0037 37.7128 57.7733 38.121L60.1874 38.6782C60.9167 38.8043 61.6613 38.5557 62.1762 38.0142L62.4177 37.7596C62.9797 37.1676 63.1741 36.3078 62.9255 35.5248L59.6619 25.2769L57.9595 15.4192C57.7167 14.0142 57.2879 12.6489 56.6835 11.3616L54.8915 7.54173C53.9159 5.46188 50.9999 5.4931 50.068 7.59457L47.9096 12.4796C46.7868 15.0217 45.36 17.4114 43.6611 19.5957L33.041 33.2517C31.6613 35.1105 31.6519 37.6755 33.0197 39.544L45.9503 57.2156C46.7715 58.3383 48.0663 59 49.44 59Z" stroke="#C9FF00" stroke-width="0.91" stroke-linecap="round" stroke-linejoin="round"/>
<path d="M44.264 51.694C43.7632 51.7 43.2908 51.4538 43.0021 51.0371L34.3425 38.54C33.4223 37.2828 33.4259 35.5343 34.3472 34.2807L44.9544 20.6404C46.7358 18.3492 48.2368 15.8358 49.415 13.17L51.5734 8.28495C51.8149 7.74097 52.298 7.68213 52.4935 7.68213C52.6891 7.68213 53.1569 7.73857 53.4043 8.26814L55.1963 12.088C55.7359 13.2372 56.1188 14.4573 56.3356 15.7121L58.0381 25.5698C58.051 25.6466 58.0699 25.7235 58.0934 25.7968L61.357 36.0447C61.4183 36.2368 61.3711 36.447 61.2333 36.5923L60.9918 36.8469C60.881 36.9645 60.7255 37.0318 60.5653 37.0318C60.5417 37.0318 60.5193 37.0306 60.4957 37.0282L58.0487 36.8024C56.669 36.4842 55.4225 35.7001 54.5919 34.5328L53.5951 32.9742C53.3501 32.6295 52.9778 31.4875 52.8635 31.0768C52.8635 31.0768 51.7737 26.8019 51.7666 26.7754C51.4226 25.4821 50.6061 24.4002 49.2889 24.4002C48.4724 24.4002 48.0259 25.0558 47.4674 25.6695C47.4509 25.6875 44.9214 28.7196 44.9214 28.7196C44.357 29.3957 43.8233 29.9649 44 30.8355C44.1768 31.7049 44.727 32.429 45.5093 32.8204L47.8244 33.9817C48.8212 34.4812 49.6211 35.3242 50.0771 36.3569L56.2248 50.6133C56.4393 51.1116 56.0823 51.6712 55.5486 51.6724L44.2628 51.6976L44.264 51.694Z" stroke="#C9FF00" stroke-width="0.91" stroke-linecap="round" stroke-linejoin="round"/>
</svg>
