<svg width="64" height="64" viewBox="0 0 64 64" fill="none" xmlns="http://www.w3.org/2000/svg">
<path d="M37.4511 7.33325C37.4511 7.36913 37.4482 7.40644 37.4482 7.44232C37.4482 14.4368 42.9517 20.1081 49.7424 20.1081C56.5331 20.1081 62.0351 14.4368 62.0351 7.44232C62.0351 7.405 62.0322 7.36913 62.0322 7.33325" stroke="#D1FF00" stroke-width="0.9" stroke-miterlimit="10" stroke-linejoin="round"/>
<path d="M44.8076 18.9931V20.9677C48.0767 21.2533 51.4074 21.2677 54.81 20.9677V18.9429" stroke="#D1FF00" stroke-width="0.9" stroke-miterlimit="10" stroke-linejoin="round"/>
<path d="M45.4131 21.0064V21.8201C48.3162 22.0841 51.2466 22.0928 54.2071 21.8201V20.9863" stroke="#D1FF00" stroke-width="0.9" stroke-miterlimit="10" stroke-linejoin="round"/>
<path d="M45.9297 21.899V22.7127C48.4138 22.9724 50.9926 22.9896 53.6876 22.7127V21.8789" stroke="#D1FF00" stroke-width="0.9" stroke-miterlimit="10" stroke-linejoin="round"/>
<path d="M44.2275 45.6521V45.4942C44.2275 44.9418 44.6624 44.4854 45.2149 44.4653C48.227 44.3519 51.2866 44.3476 54.3992 44.4653C54.9531 44.4868 55.3937 44.9389 55.3937 45.4942V45.6808" stroke="#D1FF00" stroke-width="0.9" stroke-miterlimit="10" stroke-linejoin="round"/>
<path d="M43.293 46.8274V46.6695C43.293 46.117 43.801 45.6607 44.4453 45.6406C47.9598 45.5272 51.5302 45.5229 55.1638 45.6406C55.811 45.6621 56.3247 46.1142 56.3247 46.6695V46.8561" stroke="#D1FF00" stroke-width="0.9" stroke-miterlimit="10" stroke-linejoin="round"/>
<path d="M40.1709 59.3325V59.1747C40.1709 58.6222 40.9372 58.1658 41.9073 58.1457C47.207 58.0324 52.5899 58.0281 58.066 58.1457C59.0419 58.1673 59.8154 58.6193 59.8154 59.1747V59.3612" stroke="#D1FF00" stroke-width="0.9" stroke-miterlimit="10" stroke-linejoin="round"/>
<path d="M38.5332 60.9713V60.35C38.5332 59.7975 39.4272 59.3411 40.5595 59.321C46.7432 59.2077 53.0244 59.2033 59.4161 59.321C60.5541 59.3425 61.4568 59.7946 61.4568 60.35V61L38.5332 60.9713Z" stroke="#D1FF00" stroke-width="0.9" stroke-miterlimit="10" stroke-linejoin="round"/>
<path d="M45.4131 44.3949V44.2413C45.4131 43.8682 45.6987 43.5539 46.0718 43.5252C48.5415 43.3344 51.0299 43.3272 53.5398 43.5252C53.9158 43.5539 54.2071 43.8654 54.2071 44.2413V44.4164" stroke="#D1FF00" stroke-width="0.9" stroke-miterlimit="10" stroke-linejoin="round"/>
<path d="M45.9297 43.5039V43.4006C45.9297 42.9944 46.2411 42.6558 46.6458 42.6213C48.685 42.4477 50.7888 42.4376 52.9686 42.6213C53.3748 42.6558 53.6876 42.993 53.6876 43.4006V43.5225" stroke="#D1FF00" stroke-width="0.9" stroke-miterlimit="10" stroke-linejoin="round"/>
<path d="M46.542 22.7844V42.6442" stroke="#D1FF00" stroke-width="0.9" stroke-miterlimit="10" stroke-linejoin="round"/>
<path d="M52.9326 22.7844V42.6442" stroke="#D1FF00" stroke-width="0.9" stroke-miterlimit="10" stroke-linejoin="round"/>
<path d="M41.3564 58.1283V46.7627H58.4049V58.1283" stroke="#D1FF00" stroke-width="0.9" stroke-miterlimit="10" stroke-linejoin="round"/>
<path d="M49.7486 8.69791C56.5424 8.69791 62.0499 8.09396 62.0499 7.34895C62.0499 6.60395 56.5424 6 49.7486 6C42.9547 6 37.4473 6.60395 37.4473 7.34895C37.4473 8.09396 42.9547 8.69791 49.7486 8.69791Z" stroke="#D1FF00" stroke-width="0.9" stroke-miterlimit="10" stroke-linejoin="round"/>
<path d="M53.3471 26.8916H46.1475" stroke="#D1FF00" stroke-width="0.9" stroke-miterlimit="10" stroke-linejoin="round"/>
<path d="M53.3471 36.2983H46.1475" stroke="#D1FF00" stroke-width="0.9" stroke-miterlimit="10" stroke-linejoin="round"/>
</svg>
