<svg width="64" height="64" viewBox="0 0 64 64" fill="none" xmlns="http://www.w3.org/2000/svg">
<path d="M62.2437 58.2792C62.2437 58.2792 53.6796 62.151 44 58.2792C50.1595 47.1335 50.1814 36.3498 50.1814 36.3498C49.6627 36.0186 49.5382 35.405 49.9336 34.9505L49.8655 27.9514C49.4689 27.6022 49.3687 27.1478 49.6897 26.5431C49.6897 26.5431 50.0183 17.8186 46.7563 10.6462C44.6701 6.0567 47.5252 4.28381 52.2469 4.02321C57.1638 3.75233 59.7801 5.89494 60.4246 8.24168C61.069 10.5884 61.5209 12.8389 61.5209 12.8389C58.816 18.092 57.0919 22.8073 56.7299 26.6612C57.1201 27.0592 57.201 27.4674 56.8467 27.8936L56.7876 34.9325C57.1497 35.4229 57.192 35.9069 56.6118 36.3408C56.7555 43.2976 58.4617 50.5753 62.2437 58.2805V58.2792Z" stroke="#D1FF00" stroke-width="0.9" stroke-miterlimit="10" stroke-linejoin="round"/>
<path d="M56.8934 10.7425C56.5711 8.62561 56.3414 5.95665 52.9817 5.91044C49.5297 5.86294 49.3461 8.03122 50.2666 9.08648C51.6428 10.663 53.0742 10.9274 56.8947 10.7438L56.8934 10.7425Z" stroke="#D1FF00" stroke-width="0.9" stroke-miterlimit="10" stroke-linejoin="round"/>
<path d="M61.5203 12.8389C61.5203 12.8389 56.5714 12.8607 53.4416 12.9519C50.3117 13.0443 48.1486 12.2612 46.4463 9.96069" stroke="#D1FF00" stroke-width="0.9" stroke-miterlimit="10" stroke-linejoin="round"/>
<path d="M56.8464 27.8936C54.3726 28.2787 51.8872 28.2068 49.8652 27.9526" stroke="#D1FF00" stroke-width="0.9" stroke-miterlimit="10" stroke-linejoin="round"/>
<path d="M56.6347 36.2959C54.3393 36.7478 52.0657 36.6091 50.2158 36.3421" stroke="#D1FF00" stroke-width="0.9" stroke-miterlimit="10" stroke-linejoin="round"/>
<path d="M56.786 34.9377C54.3738 35.4166 51.923 35.3126 49.9512 34.9955" stroke="#D1FF00" stroke-width="0.9" stroke-miterlimit="10" stroke-linejoin="round"/>
<path d="M56.7645 26.6945C54.2907 27.0797 51.727 26.9461 49.7051 26.6907" stroke="#D1FF00" stroke-width="0.9" stroke-miterlimit="10" stroke-linejoin="round"/>
<path d="M47.0029 51.9041C48.8246 52.3868 50.9723 52.6653 53.2741 52.6653C55.5759 52.6653 57.7237 52.3868 59.5454 51.9041" stroke="#D1FF00" stroke-width="0.9" stroke-miterlimit="10" stroke-linejoin="round"/>
</svg>
