<svg width="64" height="64" viewBox="0 0 64 64" fill="none" xmlns="http://www.w3.org/2000/svg">
<path d="M53.0001 57.5003H43.209V56.2591L44.2537 55.3718H45.1639L45.5786 55.6363L48.4397 55.5495" stroke="#D1FF00" stroke-miterlimit="10"/>
<path d="M53.0001 56.259H43.209" stroke="#D1FF00" stroke-miterlimit="10"/>
<path d="M52.9998 55.5494H48.4394L48.2432 14.9397" stroke="#D1FF00" stroke-miterlimit="10"/>
<path d="M53.0003 12.4026H43.9111V12.8386L44.4659 14.8678L47.4102 15.9591" stroke="#D1FF00" stroke-miterlimit="10"/>
<path d="M52.9984 14.9397H47.4661L45.1621 55.3717" stroke="#D1FF00" stroke-miterlimit="10"/>
<path d="M43.9111 12.8381H53.0003" stroke="#D1FF00" stroke-miterlimit="10"/>
<path d="M47.4661 14.9396C47.3402 14.221 47.1985 13.8781 47.2175 12.8381" stroke="#D1FF00" stroke-miterlimit="10"/>
<path d="M48.1364 12.4021V11.6475L47.8016 8.08192C47.7858 7.96807 47.595 7.97501 47.5903 8.08956L47.4668 12.4014" stroke="#D1FF00" stroke-miterlimit="10"/>
<path d="M53 57.5003H62.7912V56.2591L61.7464 55.3718H60.8363L60.4215 55.6363L57.5596 55.5495" stroke="#D1FF00" stroke-miterlimit="10"/>
<path d="M53 56.259H62.7912" stroke="#D1FF00" stroke-miterlimit="10"/>
<path d="M53 55.5494H57.5596L57.7559 14.9397" stroke="#D1FF00" stroke-miterlimit="10"/>
<path d="M53 12.4026H62.0891V12.8386L61.5343 14.8678L58.5901 15.9591" stroke="#D1FF00" stroke-miterlimit="10"/>
<path d="M53 14.9397H58.5323L60.8363 55.3717" stroke="#D1FF00" stroke-miterlimit="10"/>
<path d="M62.0891 12.8381H53" stroke="#D1FF00" stroke-miterlimit="10"/>
<path d="M58.5332 14.9396C58.659 14.221 58.8007 13.8781 58.7817 12.8381" stroke="#D1FF00" stroke-miterlimit="10"/>
<path d="M57.8652 12.4021V11.6475L58.2 8.08192C58.2159 7.96807 58.4066 7.97501 58.4113 8.08956L58.5348 12.4014" stroke="#D1FF00" stroke-miterlimit="10"/>
</svg>
