<svg version="1.2" xmlns="http://www.w3.org/2000/svg" viewBox="0 0 1292 573" width="1292" height="573">
	<style>
		.s0 { fill: #d2ff00 } 
	</style>
	<path fill-rule="evenodd" class="s0" d="m1190.45 13.69q0.91 0.54 1.8 1.06c3.38 1.85 6.22 3.59 8.67 6.64 2.09 5.06 1.05 9.47-0.24 14.67q-0.31 1.21-0.62 2.38-2.42 9.53-5.26 18.96c-5.69 19-9.99 37.63-11.99 57.41q-0.36 4.1-0.81 8.19-0.51 1.02-1 2c3.02-1.01 4.64-2.27 6.97-4.39q0.78-0.72 1.53-1.42c5.3-4.9 10.25-10.05 15.05-15.43 1.24-1.39 1.24-1.39 2.45-2.76 3.86-4.33 7.63-8.73 11.41-13.14q2.37-2.77 4.74-5.53 1.42-1.67 2.85-3.33c3.84-4.52 7.78-8.82 12-13 2.37-2.34 4.71-4.67 6.91-7.17 2.29-2.7 4.61-5.34 7.09-7.88 1.04-0.99 1.04-0.99 2.06-1.95 1.78-1.81 1.78-1.81 3.94-3 4.61-0.7 7.63 0.48 11.62 2.6 0.98 0.55 0.98 0.55 1.94 1.09 2.56 1.34 5.04 2.71 7.44 4.31 3.23 2.82 4.88 3.82 5.31 8.13-6.98 13.58-6.98 13.58-18.22 24.5-3.19 3.34-6.3 6.71-9.28 10.25-1.4 1.77-1.47 1.69-2.81 3.12-1.54 1.64-1.22 0.97-2.23 2.17-2.7 3.23-1.83 2.61-4.94 5.43-4.75 4.94-9.39 9.94-13.71 15.28-4.32 5.38-8.79 10.58-13.46 15.67-3.35 3.65-6.7 7.28-9.84 11.11-4.83 6.02-9.88 11.73-15.16 17.35-2.24 2.39-4.47 4.77-6.62 7.24-3.58 4.2-7.36 8.08-11.29 11.94-5.43 5.22-8.68 9.23-10.13 16.79-0.22 1.21-0.22 1.21-0.43 2.4q-0.8 4.17-1.58 8.35c-5.62 30.3-11.37 58.52-27.42 85.3q-0.6 1-1.19 1.97c-14.35 24.17-31.69 43.88-59.81 51.45-11.98 2.07-22.06 0.96-32.32-5.45-7.29-5.43-11.66-12.27-13.5-21.19-1.97-18.28 6.87-35.37 17.78-49.45q1.59-2.03 3.16-4.07 1.46-1.92 2.94-3.84 0.76-0.99 1.5-1.95c1.7-2.23 3.42-4.37 5.25-6.5 0.68 0 0.43-1.06 1.09-1.06-0.2-2.09 0.71-1.03 2.2-2.6q0.9-1 1.77-1.96c0.99-1.11 0.99-1.11 1.96-2.19q1.81-2 3.58-4.04c3.71-4.3 7.54-8.48 11.4-12.65 3.43-3.69 6.8-7.4 10.06-11.25 1.46-1.83 1.46-1.83 2.94-3.25 1.02-0.34 0.51-1.08 1.5-1.41-0.21-2.07 1.28-1.65 2.73-3.03q0.88-0.86 1.74-1.69 0.99-0.98 1.96-1.92c5.86-5.69 11.62-11.46 17.22-17.4 0.96-1.04 0.96-1.04 1.91-2.05 2.94-3.13 5.86-6.27 8.69-9.5 2.29-2.64 4.58-5.29 6.99-7.83q0.87-0.9 1.72-1.77 1.67-1.73 3.35-3.46 0.88-0.88 1.73-1.74c6.44-6.72 6.7-13.22 6.68-22.27q-0.01-1.87-0.03-3.68c-0.01-5.47 0.55-11.02-1.19-16.25q-1.1-0.37-2.16-0.73c-2.84-0.27-2.84-0.27-5.49 1.28-7.19 5.8-12.68 10.35-22.35 9.45-8.23-2.9-14.62-7.95-20.16-14.62q-0.93-1.21-1.84-2.38c-4.96-6.28-6.86-12.69-8.63-20.37-1.14-5.57-1.58-10.01-6.37-13.63q-2.54 1.02-5 2c8.01 24.03 5.25 51.05-1.42 75.08-4.59 15.09-13.86 34.8-28.01 42.8-0.56 0.22-1.29 1.77-1.87 2.23-1.28 1 0.55-0.73-1.17 0.45-10.06 6.88-21.68 16.92-34.32 16.64-10.3-0.94-20.41-7.98-27.34-15.51q-0.95-1.37-1.87-2.69c-5.1-6.59-7.78-12.72-9-21-1.81-27.64 12.11-52.15 28.56-73.17 0.73-0.92 0.73-0.92 1.44-1.83 5.53-7.06 11.19-13.76 17.93-19.7 6.6-5.71 13.97-11.45 18.07-19.3-0.25-2.37-0.25-2.37-1-4q-1.49-0.32-2.94-0.62c-13.17-1.7-13.17-1.7-39.19 16.29-2.38 1.66-2.32 2.07-4.53 3.95-3.25 2.75-2.83 1.93-3.35 2.16 0 0.68-0.99 0.56-0.99 1.22-2.24 1.12-2.24 1.12-7.38 6.44-1.83 1.91-3.69 3.74-5.62 5.56-2.7 1.25-3.73 1.34-4.87 4.14-2.44 11.51-6.6 22.02-12.91 31.96q-0.62 0.96-1.22 1.9c-7.39 11.52-14.95 22.84-23.67 33.41q-0.68 0.8-1.33 1.59-4.09 4.92-8.24 9.78-3.5 4.09-6.99 8.19-0.71 0.84-1.4 1.66c-2.55 3.01-5.09 6.03-7.57 9.1-6.51 8.15-13.56 15.77-20.8 23.27-2.37 2.34-4.68 4.61-6.78 7.18-4 5.25-8.28 10.14-12.78 14.95-2.85 3.02-5.7 6.03-8.44 9.16-4.22 4.94-8.74 9.53-13.35 14.1-3.93 3.88-8 7.66-11.45 11.98-7.37 10.06-8.39 23.93-6.9 36.08 0.32 2.52 0.59 5.01 0.7 7.55-0.52 6.25-2.16 10.77-7 15-8.58 3.84-16.08 3.47-25 1-2.99-0.83-5.92-1.6-9-2-5.45 1.11-8.58 5.14-11.81 9.38-3.57 4.68-6.84 8.97-12.06 11.85-6.26 2.27-12.86 1.11-18.96-1.18-5.38-2.6-11.05-6.26-13.17-12.05 1.19-8.1 1.19-8.1 6.49-14.77q2-2.55 3.93-5.16c7.41-10.18 14.21-19.29 24.83-26.32 2.89-1.81 5.47-3.48 7.93-5.85q0.92-0.97 1.82-1.9 1.49-1.08 2.94-2.12c5.91-5.04 8.11-11.49 8.93-19.03q0.12-1.19 0.23-2.34c0.89-8.97 1.28-17.93 1.48-26.94q0.08-4.23 0.18-8.46c0.55-21.54-1.14-42.7-3.09-64.14q-0.51-5.69-1.01-11.38-0.39-4.51-0.8-9.01-0.19-2.14-0.39-4.29-0.18-2.06-0.35-4.12-0.18-1.94-0.36-3.83c-0.37-4.17-1.03-7.52-2.76-11.34q-1.3-0.16-2.56-0.31c-5.37 0.49-8.49 3.36-12.23 7.1-3.5 3.63-6.3 6.6-11.21 8.21-11 0.85-20.26-1.72-29.19-8.37-2.09-2.6-2.09-2.6-2.25-6.25 0.53-4.04 1.58-5.67 4.69-8.25q2.86-2.22 5.62-4.58c15.27-13.1 30.96-24.48 48.82-33.85q1.68-0.86 3.31-1.7c31.4-16.39 60.82-26.17 96.4-26.31q1.42 0 2.79 0c9.13-0.04 18.52-0.55 27.45 1.64q1.2 0.34 2.36 0.67 4.96 1.31 9.89 2.73 1.77 0.52 3.48 1.02c7.12 2.01 13.72 4.16 20.29 7.58 2.9 1.6 2.9 1.6 5.34 2.67 3-1 3-1 5.06-2.75 16.12-15.24 37.28-31.23 59.94-34.25 10.77-1.16 19.61 1.68 28.04 8.41 4.06 3.3 8.04 6.93 13.25 8.11 8.89 0.42 8.89 0.42 25.05-12.57 8.64-6.97 17.59-15.26 27.66-19.95 4.59-0.7 7.17 0.31 10.95 2.96q0.85 0.62 1.67 1.23c4.07 2.81 7.74 5.56 10.38 9.81 0.43 3.36 0.1 5.66-0.85 8.9q-0.61 1.54-1.21 3.04c-1.45 3.62-2.98 7.14-4.69 10.64-5.4 10.88-9.39 22.11-9.56 34.42 0.07 2.14-0.22 3.47 1.31 5 2.37 0.19 2.37 0.19 5 0 9.41-6.27 9.41-6.27 24.54-28.58 0.8-1.19 0.8-1.19 1.58-2.36 7.15-10.58 12.58-21.24 16.94-33.25 2.72-7.48 5.43-14.23 9.94-20.81 4.77 0.42 8.27 1.34 12.45 3.69zm-548.45 155.31c11.26 1.74 20.8 4.83 28 14 4.5 6.97 5.96 12.21 4.6 20.42-6.44 27.77-34.95 47.97-57.51 62.26-1.05 0.67-1.05 0.67-2.09 1.32-15.39 9.89-30.54 15.69-49 14-3.29-1.1-4.71-0.8-8 0-1.55 5.3-2.26 10.05-2.27 15.57 0.01 1.32 0.01 1.32 0.02 2.62-0.06 6.7 0.23 11.45 3.75 17.31 4.55 4.55 9.41 7.04 15.81 7.99 15.2 0.59 28.76-6.62 39.75-16.7q1.98-1.83 4.04-3.58c3.09-2.63 5.85-5.15 8.46-8.27 1.94-2.33 3.64-4.04 5.94-5.94 1.79-1.47 3.4-2.89 4.92-4.64 1.84-2.34 3.31-4.2 5.89-5.73q0.86-0.32 1.69-0.63 0-1.01 0-2c4.17-4.86 9.77-9.12 15.56-11.87 4.81-1.58 8.45-1.94 13.19 0 2.89 2.41 4.02 4.31 5.25 7.87-0.19 4.08-0.72 6.55-2.9 10.04q-1.93 2.35-3.84 4.71c-0.71 0.88-0.71 0.88-1.41 1.75q-2.1 2.54-4.09 5.15c-10.6 14.43-23.35 28.37-38.09 38.64q-1.36 0.87-2.67 1.71c-5.85 3.82-11.99 6.68-18.62 8.88-16.57 5.01-39.57 4.49-54.99-3.58-1.21-0.65-1.21-0.65-2.39-1.3-3.9-2.09-7.7-4.26-11.35-6.76-8.52-6.39-15.08-14.5-16.65-25.24-2.08-24.5 4.63-49.95 19.94-69.48q1.05-1.28 2.06-2.52c8.38-10.83 17.85-20.83 28.25-29.75 2.19-1.84 4.21-3.71 6.21-5.75 16.9-17.43 37.2-31.63 62.54-30.5zm-268.51 51.64q0.77 0.69 1.51 1.36c7.29 6.01 11.29 13.4 14.04 22.39 5.65 23.54-0.46 49.04-11.85 69.99-1.42 2.48-2.85 4.95-4.15 7.5-5.12 10.19-10.7 19.47-17.73 28.46-0.66 0.84-0.66 0.84-1.31 1.66-4.74 6.09-9.74 11.86-15 17.5-2.81 3-5.58 5.98-8.17 9.17-15.38 19.64-34.64 38.16-58.99 45.58q-1.44 0.38-2.84 0.75c-4.86 1.38-9.19 2.25-14.24 2.28-1.08-0.02-1.08-0.02-2.13-0.03-11.25-0.11-20.44-2.29-30.63-7.25-8.33-4.51-16.7-11.41-19.61-20.76-1.63-9.27-0.58-17.14 4.48-25.14q0.57-0.87 1.13-1.72c3.09-4.76 6.37-9.21 10-13.57 2.42-2.8 4.83-5.59 7.11-8.51 16.65-21.41 40.99-42.31 67.04-50.71q0.94-0.3 1.85-0.59c2.99-0.97 5.93-1.83 8.99-2.53 8.07-1.26 16.94-2.08 24.01 2.53 4.05 4.48 5.06 9.09 5 15-1.07 1.23-1.07 1.23-3.41 1.69-13.52 3.67-24.89 10.16-35.74 18.95q-1.45 1.2-2.85 2.36c-5.07 4.14-9.67 8.65-14.25 13.31-2.55 2.65-5.41 4.51-8.11 7.05-0.72 0.67-0.04 0.6-0.43 1.03-1.61 1.81-1 1.7-2.54 3.21-6.36 6.7-12.39 13.85-17.57 21.51-2.2 3.76-2.99 7.62-2.1 11.89 2.25 3.37 3.14 4.05 7 5 7.68-2.26 14.21-7.36 20.2-12.51q1.42-1.26 2.8-2.49c5.51-4.85 11-9.68 15.81-15.25 1.57-1.87 3.12-3.68 4.85-5.41 4.3-4.14 8.08-8.54 11.82-13.19q1.96-2.46 3.95-4.9c16.76-20.52 35.34-45.19 39.32-72.13 1.67-14.22 2.93-26.14-5.94-38.06-2.84-2.08-3.54-2.42-6.87-2.56-25.32 1.63-46.82 19.45-63.25 37.38-4.71 5.29-9.18 10.08-15.69 13.12-5.98 1.24-12.2 0.2-17.86-1.95-5.41-2.65-10.91-6.25-13.14-12.05 0.29-2.95 0.8-4.71 2.49-7.17q0.92-1.02 1.82-2.02c1.9-2.15 2.63-4.03 5.14-5.43 0.6-0.26 0.7-0.82 1.28-1.07 0-0.68 1.27-0.65 1.27-1.31q0.66-0.57 1.29-1.12c3.34-2.32 6.54-4.74 9.64-7.37 29.89-25.87 85.48-54.15 122.56-23.87zm110.59 12.21c6.94 2.73 13.69 6.13 16.92 13.15 1.08 3.86 1.38 6.98-0.06 10.81-2.44 2.75-4.56 3.72-7.94 5.19-7.24 2.73-12.05 6.7-17.38 12.19q-0.91 0.97-1.8 1.91-0.87 0.92-1.72 1.82c-1.72 1.86-3.54 2.42-5.29 4.27-0.71 0.75-0.32 1.82-0.91 2.08 0 0.68-0.9 0.07-0.9 0.73q-1.36 1.16-2.67 2.28c-7.61 6.1-13.87 13.93-19.77 21.66q-2.28 3.03-4.56 6.06c-8.78 10.92-16.86 23.4-16 38 1.27 3.81 2.66 5.19 6.06 7.25 15.05 3.84 32.89-6.37 45.51-13.75q2.28-1.39 4.56-2.78 1.46-0.87 2.87-1.72c6.13-3.69 12.3-7.43 19-10 7.2-1.68 14.73-0.89 21 3 4.35 3 7.61 5.18 8.75 10.5-1.32 6.16-3.9 10.4-8.91 14.21-0.93 0.65-0.93 0.65-1.84 1.29-12.47 8.8-26.87 16.52-41.13 21.95q-1.45 0.53-2.87 1.05c-9.98 4.28-19.31 5.47-30.07 5.82q-1.07 0.03-2.12 0.06c-6.64 0.18-13.32 0.76-19.81-0.88-17.2-7.31-32.52-16.89-40.11-34.58-3.62-10.83-2.1-21.06 2.57-31.3q0.5-1.05 0.98-2.06c7.23-15.26 16.83-29.64 28.88-41.5 4.99-4.85 9.97-9.66 14.52-14.93 2-2.37 3.81-4.17 6.22-6.19 2.35-1.95 4.08-3.69 6-6 1.66-2.09 3.24-3.68 5.32-5.37 2.62-2.07 2.62-2.07 5.01-4.29 9.68-9.13 18.01-13.71 31.69-9.93zm-317.2 21.46q1.58 0.86 3.12 1.69c5.4 2.56 8.28 5.09 11.66 10.02q0.68 1 1.34 1.98c4.5 5.39 5.51 11.21 6.67 17.99q0.17 1.02 0.33 2.01c1.78 10.73 2.38 21.03 1.24 31.86q-0.12 1.09-0.24 2.14c-1.59 14.5-5.6 26.37-15.12 37.78q-0.95 1.13-1.88 2.22c-3.99 5.14-7.71 10.32-13 14.19-4.68 3.23-8.85 6.94-13 10.81-3.09 3.17-6.23 6.1-9.71 8.84-0.87 0.68-0.87 0.68-1.73 1.35q-6.39 5.01-12.99 9.74-0.89 0.64-1.76 1.26-3.39 2.42-6.81 4.81c-1.66 1.14-1.66 1.14-3.29 2.26q-1.53 1.07-3.02 2.12c-1.35 0.92-1.35 0.92-2.68 1.83-2.18 1.94-2.68 2.94-3.01 5.79 37.41 22.91 88.7 22.64 130.64 15.78 4.84-0.79 9.67-1.62 14.56-2.08 6.27-0.18 10.23 1.14 15.11 5.24 3.14 10.38 3.14 10.38 2.8 21.52q0.01 1.1 0.01 2.17c0.03 3.29 0.38 6.37-1.12 9.37-4.32 4.51-7.91 5.81-14.02 6.86q-1.51 0.23-2.98 0.45c-6.25 1.11-12.26 1.78-18.61 1.73-4.67-0.06-9.29 0.01-13.95 0.26q-1.17 0.07-2.3 0.14-3.48 0.2-6.97 0.41-9.12 0.58-18.25 1.06-0.98 0.04-1.92 0.09c-7.24 0.36-13.76-0.31-20.86-1.83q-1.78-0.4-3.52-0.79c-9.57-2.11-19.04-4.46-28.44-7.27-3.8-1.15-7.58-2.24-11.47-3.09-9.48-2.09-17.47-5.37-25.95-10.05q-0.89-0.49-1.76-0.97c-5.63-3-10.34-5.76-14.3-10.8q-2.83-3.65-5.79-7.18c-0.74-0.89-0.74-0.89-1.47-1.77-3.12-3.84-5.97-6.95-10.44-9.25q-0.85 7.91-1.45 15.85c-1 13.26-1.77 26.56-4.04 39.67-1.93 10.8-3.22 21.55-4.12 32.47q-0.1 1.27-0.2 2.51c-0.82 9.39-1.36 18.44-0.51 27.84 0.51 4.2 0.81 6.87-1.52 10.61-1.96 2.23-1.96 2.23-4.47 2.49-12.3-2-25.74-8.22-34.38-17.25-1.52-3.71-1.68-6.37-1.51-10.34q0.1-1.45 0.2-2.85c0.36-7.71 1.12-15.36 2-23.03 0.19-1.62 0.19-1.62 0.37-3.22 0.64-5.48 1.3-10.94 2.29-16.37 2.66-14.4 2.66-14.4 5.33-45.91 0.1-1.18 0.1-1.18 0.2-2.34 2.45-28.71 5.63-58.35 2.16-87.08-0.39-2.14-0.39-2.14-0.35-4.05 2.26-3.4 3.08-4.13 7-5 7.79 3.28 7.79 3.28 14.37 8.75q1.34 1.14 2.63 2.25c7.1 6.03 13.79 10.72 14.63 20.5 0.23 4.16 0.79 7.6 2.37 11.5 6.49-2.31 12.27-5.17 18.1-8.83q2.74-1.75 5.48-3.48 1.37-0.86 2.69-1.69 2.36-1.51 4.73-3c18.05-10.81 35.16-25.08 49.13-40.76q2.19-2.49 4.43-4.95c3.14-3.45 6.24-6.93 9.16-10.58 5.03-6.71 8.25-13.27 7.28-21.71-6.98-2.33-14.2-1-21.19 0.73q-1.49 0.39-2.94 0.77c-16.87 4.36-33.63 9.36-49.26 17.17q-3.8 1.93-7.64 3.8c-10.63 5.16-21.38 10.1-31.16 16.78-4.32 3.11-7.43 4.52-12.81 4.75-3.73-3.73-6.25-8.07-8.21-12.95q-0.4-1.04-0.79-2.05c-2.51-6.31-4.76-12.17-5-19 3.1-8.42 13.02-13.99 20.48-18.12 1.78-0.95 1.78-0.95 3.52-1.88q8.32-4.51 16.73-8.84c1.15-0.59 1.15-0.59 2.27-1.16 24.59-12.75 71.16-33.9 98.88-22.69zm434.12 120.69c2.76 1.49 2.76 1.49 5 4 1.88 6.3 1.17 13.6 0 20-1.72 2.87-2.81 3.89-5.75 5.56-1.64 0.73-1.64 0.73-3.25 1.44-3.26 1.47-6.53 2.82-9.88 4.09-6.62 2.49-13.08 5.17-19.48 8.18q-2.9 1.38-5.81 2.75c-13.71 6.43-27.48 12.78-40.58 20.42-2.87 1.71-5.44 3.32-8.64 4.28q-0.82 0.14-1.61 0.28c-0.26 6.14-1.03 11.5-3.8 17.03-3.54 5.81-7.42 7.19-13.76 8.97-14.14 3.73-27.41 9.73-40.33 16.52q-1.56 0.83-3.06 1.63-3.09 1.64-6.18 3.29c-5.95 3.26-11 6.19-17.87 6.56-3.53-4.5-5.03-8.77-6.39-14.31q-0.31-1.36-0.61-2.69c-0.58-2.45-0.89-4.46-1-7 19.21-16.19 19.21-16.19 41.7-28.15q1.48-0.87 2.92-1.72 4.26-2.52 8.52-5.03 0.94-0.56 1.86-1.1-0.51-0.51-1-1c-11.33 4.26-22.43 8.82-33.37 13.99q-1.15 0.55-2.26 1.07c-11.86 5.6-23.4 11.46-34.61 18.3-4.58 2.8-9.17 5.39-13.99 7.77-3.23 1.58-6.4 3.16-9.44 5.07q-2.4 1.6-4.81 3.18-0.92 0.6-1.81 1.19c-11.16 7.33-24.95 19.12-38.71 19.43-4.47-4.47-6.87-14.72-7-21 0.91-2.47 1.67-3.75 3.79-5.35q1.15-0.65 2.27-1.27 1.38-0.79 2.71-1.55 3.61-2.04 7.18-4.16 10.19-6.05 20.49-11.92c3.09-1.76 6.18-3.52 9.23-5.37 4.24-2.6 8.49-5 12.95-7.19 3.29-1.61 6.5-3.26 9.68-5.08 18.65-10.85 38.41-19.99 58.32-28.29q2.19-0.91 4.38-1.82c15.78-6.87 32.2-11.75 48.69-16.62q4.96-1.45 9.92-2.92c12.88-3.83 25.75-7.41 38.84-10.42q7.1-1.63 14.17-3.41c1.39-0.35 1.39-0.35 2.75-0.69q10.26-2.55 20.44-5.31c3.26-0.91 5.81-1.63 9.19-1.63zm254.91-289.64q-1.26 0.45-2.47 0.89-2.64 0.94-5.27 1.88-3.76 1.37-7.54 2.7c-3.45 1.21-6.9 2.45-10.31 3.8q-1.68 0.69-3.32 1.37c-3.49 1.41-4.46 2.02-7 5-0.95 5.44-0.34 10.65 0.45 16.06 1.08 7.19 1.88 14.3 2.34 21.55 0.45 7.59 0.82 15.19 1.7 22.74 1.35 11.55 1.87 22.97 2.03 34.6q0.14 11.32 0.42 22.65 0.03 1.22 0.06 2.4 0.05 2.07 0.11 4.13c0.08 1.77 0.08 1.77 0.17 3.5q0.06 1.48 0.13 2.91c0.75 3.13 2.18 4.41 4.59 6.46 2.84-2.75 5.53-5.57 8.13-8.56q3.16-3.67 6.45-7.24c4.42-4.76 8.76-9.53 12.86-14.58q4.38-5.44 8.95-10.71c5.26-6.06 10.27-12.24 15.11-18.63q3.26-4.29 6.6-8.51 2.1-2.65 4.18-5.31 1.36-1.73 2.72-3.46c14.22-18.02 29.17-37.38 35-60 0.63-5.29 0.36-8.96-2.63-13.44-4.48-4.83-9.91-5.89-16.23-6.54q-1.28-0.1-2.52-0.21c-18.57-1.69-36.94-1.7-54.71 4.55zm182.78 35.33q-1.84 2.16-3.69 4.31c-15.79 16.69-32.91 40.38-33.44 64.37 0.09 3.4-0.01 4.18 2.44 6.63 6.5-0.4 6.5-0.4 18.62-11.38q1.21-1.33 2.38-2.62 3.34-3.61 6.61-7.28 1.21-1.38 2.39-2.72c13.52-14.87 22.17-33.8 22.37-54.13-0.07-2.45 0.45-5.05-1.37-6.87-7.45-0.38-11.67 4.36-16.31 9.69zm-424.6 86.77q-1.57 1.29-3.09 2.54c-6.6 5.01-12.59 10.43-18.51 16.23-1.35 1.33-1.35 1.33-2.68 2.64-6.51 6.38-13.47 13.03-17.81 21.13 0.29 2.32 0.29 2.32 1 4 6.63 0.32 11.41-1.45 17.1-4.82q0.93-0.57 1.84-1.12c10.32-6.26 20.79-13.05 29.1-21.9q0.99-1.1 1.96-2.16c8.32-8.73 16.77-16.73 19-29-9.18-2.79-9.18-2.79-27.91 12.46zm493.93 44.67c-8.8 12.52-17.83 25.02-27.91 36.54-5.81 6.62-11.56 13.09-14.11 21.7 0 3.04-0.09 4.38 2 6.63 2.91 0.67 5.08 1.04 8 1 7.27-1.59 7.27-1.59 21.65-19.33q0.68-0.85 1.35-1.67c13.95-17.01 24.26-38.47 29-60-7.91-1.87-7.91-1.87-19.98 15.13z"/>
</svg>