<svg width="69" height="33" viewBox="0 0 69 33" fill="none" xmlns="http://www.w3.org/2000/svg">
  <path d="M37.077 15.373c-.147.013-.301-.005-.437.04-1.109.361-2.239.673-3.31 1.114-1.437.59-2.833 1.286-4.246 1.931-1.547.708-3.046 1.509-4.618 2.165-.715.298-1.399.686-2.072 1.068-2.285 1.29-4.52 2.683-6.863 3.865-1.486.752-2.85 1.657-4.238 2.557a159.791 159.791 0 0 1-5.47 3.357c-.71.418-1.46.777-2.224 1.088-.8.326-1.203.164-1.512-.616a63.493 63.493 0 0 1-1.234-3.426c-.09-.266-.076-.578-.057-.863.039-.622.306-1.086.895-1.397.991-.518 1.953-1.088 2.925-1.648.969-.56 1.944-1.111 2.896-1.7a120.543 120.543 0 0 1 7.084-4.065c2.798-1.479 5.56-3.019 8.38-4.45 2.125-1.077 4.302-2.059 6.483-3.018C31.282 10.57 33.141 9.83 35 9.113a66.936 66.936 0 0 1 4.134-1.45c2.554-.802 5.11-1.608 7.688-2.326 4.03-1.119 8.04-2.339 12.141-3.203 1.859-.39 3.695-.875 5.537-1.34.564-.142 1.111-.354 1.666-.539 1.065-.353 2.127.233 2.3 1.328.099.62.113 1.26.098 1.89-.018.677-.059 1.362-.185 2.028-.162.843-.51 1.586-1.504 1.747-.193.03-.381.088-.56.16-1.928.798-3.876 1.565-5.777 2.424-1.683.76-3.31 1.633-5.025 2.329-.585.235-1.138.556-1.688.861-.897.492-1.795.967-2.768 1.306-.453.156-.857.456-1.274.703-1.166.696-2.27 1.5-3.557 1.981-.727.275-1.079.835-.989 1.602.09.814-.145 1.542-.476 2.254-.605 1.298-1.504 2.202-2.995 2.507-2.248.455-4.367 1.345-6.485 2.206-.535.218-1.023.555-1.548.813-1.221.598-2.46 1.171-3.68 1.778-1.045.517-2.076 1.067-3.118 1.589-.434.219-.874.428-1.328.597-.41.154-.804-.002-.978-.402-.29-.665-.597-1.338-.774-2.04-.181-.706-.318-1.421-.63-2.086-.063-.13-.088-.279-.129-.417-.146-.514-.051-.965.378-1.312.302-.245.61-.481.93-.703 1.038-.722 2.067-1.463 3.13-2.148a181.95 181.95 0 0 1 4.465-2.764c1.417-.848 2.862-1.654 4.283-2.498.289-.171.536-.418.801-.627.112-.079.224-.162.335-.24l.01.014c-.111.079-.227.157-.338.236l-.013.002Z" fill="currentColor"></path>
</svg>
