<svg version="1.2" xmlns="http://www.w3.org/2000/svg" viewBox="0 0 69 33" width="69" height="33">
	<style>
		.s0 { fill: #d2ff00 } 
	</style>
	<path class="s0" d="m37.08 15.37c-0.15 0.02-0.3 0-0.44 0.04-1.11 0.36-2.24 0.68-3.31 1.12-1.44 0.59-2.83 1.28-4.25 1.93-1.54 0.71-3.04 1.51-4.61 2.16-0.72 0.3-1.4 0.69-2.08 1.07-2.28 1.29-4.52 2.68-6.86 3.87-1.49 0.75-2.85 1.65-4.24 2.55q-0.67 0.44-1.35 0.86-0.68 0.43-1.37 0.85-0.68 0.42-1.37 0.83-0.68 0.41-1.38 0.82-1.07 0.62-2.22 1.09c-0.8 0.32-1.2 0.16-1.51-0.62q-0.17-0.42-0.33-0.85-0.16-0.42-0.31-0.85-0.16-0.43-0.31-0.86-0.15-0.43-0.29-0.86c-0.09-0.27-0.07-0.58-0.05-0.87 0.03-0.62 0.3-1.08 0.89-1.39 0.99-0.52 1.95-1.09 2.93-1.65q1.46-0.83 2.89-1.7 0.87-0.54 1.75-1.06 0.87-0.53 1.76-1.03 0.89-0.51 1.78-1.01 0.89-0.49 1.8-0.97c2.79-1.48 5.56-3.02 8.38-4.45 2.12-1.07 4.3-2.06 6.48-3.02q2.74-1.19 5.54-2.26 0.51-0.2 1.02-0.38 0.52-0.19 1.04-0.38 0.51-0.18 1.03-0.35 0.52-0.17 1.04-0.34c2.56-0.8 5.11-1.6 7.69-2.32 4.03-1.12 8.04-2.34 12.14-3.21 1.86-0.39 3.7-0.87 5.54-1.34 0.56-0.14 1.11-0.35 1.67-0.53 1.06-0.36 2.12 0.23 2.3 1.32 0.09 0.62 0.11 1.26 0.09 1.89-0.01 0.68-0.06 1.37-0.18 2.03-0.16 0.84-0.51 1.59-1.51 1.75q-0.29 0.05-0.56 0.16c-1.92 0.8-3.87 1.56-5.77 2.42-1.69 0.76-3.31 1.64-5.03 2.33-0.58 0.24-1.14 0.56-1.69 0.86-0.89 0.49-1.79 0.97-2.76 1.31-0.46 0.15-0.86 0.45-1.28 0.7-1.16 0.7-2.27 1.5-3.55 1.98-0.73 0.28-1.08 0.84-0.99 1.6 0.09 0.82-0.15 1.55-0.48 2.26-0.6 1.3-1.5 2.2-2.99 2.51-2.25 0.45-4.37 1.34-6.49 2.2-0.53 0.22-1.02 0.56-1.55 0.81-1.22 0.6-2.46 1.18-3.68 1.78-1.04 0.52-2.07 1.07-3.12 1.59q-0.64 0.34-1.32 0.6c-0.41 0.15-0.81 0-0.98-0.4-0.29-0.67-0.6-1.34-0.78-2.04-0.18-0.71-0.31-1.42-0.63-2.09q-0.08-0.2-0.12-0.42c-0.15-0.51-0.06-0.96 0.37-1.31q0.46-0.37 0.93-0.7c1.04-0.72 2.07-1.47 3.13-2.15q0.56-0.35 1.11-0.7 0.56-0.35 1.12-0.7 0.55-0.34 1.12-0.69 0.56-0.34 1.12-0.67c1.42-0.85 2.86-1.66 4.28-2.5 0.29-0.17 0.54-0.42 0.8-0.63q0.17-0.12 0.34-0.24l0.01 0.01q-0.17 0.12-0.34 0.24z"/>
</svg>