<svg xmlns="http://www.w3.org/2000/svg" viewBox="156 85 646 646">
  <defs>
    <clipPath id="a" clipPathUnits="userSpaceOnUse">
      <path d="M-434.36 376.08h792v-612h-792Z"/>
    </clipPath>
  </defs>
  <path d="M0 0c-41.263-39.466-98.616-39.05-132.458-14.88C-114.08-4.062-97.509 7.824-85.142 17.842-49.179 48.817-11.275 95.819 21.72 140.099 47.176 105.398 43.091 41.214 0 0m-127.611 137.072c45.912 43.912 112.986 41.83 143.957 9.449.306-.321.603-.651.903-.978-30.493-40.411-65.407-81.527-92.285-107.827-24.89-24.356-52.954-41.522-63.587-47.701a72 72 0 0 0-4.325 4.149c-30.971 32.382-30.574 98.996 15.337 142.908m194.619 47.999h-21.25c-7.767-11.342-16.29-23.202-25.24-35.173l-.073.079c-43.904 46.385-118.546 50.358-165.414 5.996-46.637-44.606-46.925-118.858-2.087-165.738a122 122 0 0 1 3.194-3.205c-52.663-29.668-106.877-33.16-129.737 24.56l-21.266-2.462c5.254-26.449 27.973-47.49 53.822-53.79 29.93-7.294 68.965 7.354 102.876 26.493 45.048-38.508 112.631-39.103 156.291 2.655C63.49 27.429 64.562 98.327 25.161 144.731a2447 2447 0 0 1 11.637 15.847c3.77 5.178 8.149 10.93 11.968 16.396l82.463-221.983h6.901l6.882 17.659z" clip-path="url(#a)" fill="#a4884f" transform="matrix(1.33333 0 0 -1.33333 579.147 501.44)"/>
</svg>
