<svg width="34" height="22" viewBox="0 0 34 22" fill="none" xmlns="http://www.w3.org/2000/svg">
<mask id="mask0_1883_3836" style="mask-type:alpha" maskUnits="userSpaceOnUse" x="0" y="0" width="34" height="22">
<path d="M0 3.19914C0 1.72638 1.19391 0.532471 2.66667 0.532471H31.3333C32.8061 0.532471 34 1.72638 34 3.19914V18.8658C34 20.3386 32.8061 21.5325 31.3333 21.5325H2.66667C1.19391 21.5325 0 20.3386 0 18.8658V3.19914Z" fill="#1E50A0"/>
</mask>
<g mask="url(#mask0_1883_3836)">
<path d="M0 0.532471H34V21.5325H0V0.532471Z" fill="#005430"/>
<path d="M0 0.532471H39.9V21.5325H0" fill="#B31942"/>
<path d="M0 2.9563H39.9H0ZM39.9 6.18707H0H39.9ZM0 9.41784H39.9H0ZM39.9 12.6486H0H39.9ZM0 15.8794H39.9H0ZM39.9 19.1101H0H39.9Z" fill="black"/>
<path d="M0 2.9563H39.9M39.9 6.18707H0M0 9.41784H39.9M39.9 12.6486H0M0 15.8794H39.9M39.9 19.1101H0" stroke="white" stroke-width="1.61538"/>
<path d="M0 0.532471H15.96V11.8402H0" fill="#0A3161"/>
<path d="M1.33133 1.00928L1.71113 2.17818L0.716797 1.45576H1.94585L0.951526 2.17818L1.33133 1.00928Z" fill="white"/>
<path d="M1.33133 3.27051L1.71113 4.43941L0.716797 3.71699H1.94585L0.951526 4.43941L1.33133 3.27051Z" fill="white"/>
<path d="M1.33133 5.53149L1.71113 6.7004L0.716797 5.97798H1.94585L0.951526 6.7004L1.33133 5.53149Z" fill="white"/>
<path d="M1.33133 7.7937L1.71113 8.9626L0.716797 8.24018H1.94585L0.951526 8.9626L1.33133 7.7937Z" fill="white"/>
<path d="M1.33133 10.0576L1.71113 11.2265L0.716797 10.5041H1.94585L0.951526 11.2265L1.33133 10.0576Z" fill="white"/>
<path d="M2.6614 2.14355L3.0412 3.31246L2.04688 2.59004H3.27593L2.2816 3.31246L2.6614 2.14355Z" fill="white"/>
<path d="M2.6614 4.40479L3.0412 5.57369L2.04688 4.85127H3.27593L2.2816 5.57369L2.6614 4.40479Z" fill="white"/>
<path d="M2.6614 6.66602L3.0412 7.83492L2.04688 7.1125H3.27593L2.2816 7.83492L2.6614 6.66602Z" fill="white"/>
<path d="M2.6614 8.92822L3.0412 10.0971L2.04688 9.3747H3.27593L2.2816 10.0971L2.6614 8.92822Z" fill="white"/>
<path d="M3.99148 1.00928L4.37128 2.17818L3.37695 1.45576H4.60601L3.61168 2.17818L3.99148 1.00928Z" fill="white"/>
<path d="M3.99148 3.27051L4.37128 4.43941L3.37695 3.71699H4.60601L3.61168 4.43941L3.99148 3.27051Z" fill="white"/>
<path d="M3.99148 5.53149L4.37128 6.7004L3.37695 5.97798H4.60601L3.61168 6.7004L3.99148 5.53149Z" fill="white"/>
<path d="M3.99148 7.7937L4.37128 8.9626L3.37695 8.24018H4.60601L3.61168 8.9626L3.99148 7.7937Z" fill="white"/>
<path d="M3.99148 10.0564L4.37128 11.2253L3.37695 10.5029H4.60601L3.61168 11.2253L3.99148 10.0564Z" fill="white"/>
<path d="M5.32156 2.14355L5.70136 3.31246L4.70703 2.59004H5.93609L4.94176 3.31246L5.32156 2.14355Z" fill="white"/>
<path d="M5.32156 4.40479L5.70136 5.57369L4.70703 4.85127H5.93609L4.94176 5.57369L5.32156 4.40479Z" fill="white"/>
<path d="M5.32156 6.66602L5.70136 7.83492L4.70703 7.1125H5.93609L4.94176 7.83492L5.32156 6.66602Z" fill="white"/>
<path d="M5.32156 8.92822L5.70136 10.0971L4.70703 9.3747H5.93609L4.94176 10.0971L5.32156 8.92822Z" fill="white"/>
<path d="M6.65164 1.00928L7.03144 2.17818L6.03711 1.45576H7.26617L6.27184 2.17818L6.65164 1.00928Z" fill="white"/>
<path d="M6.65164 3.27051L7.03144 4.43941L6.03711 3.71699H7.26617L6.27184 4.43941L6.65164 3.27051Z" fill="white"/>
<path d="M6.65164 5.53149L7.03144 6.7004L6.03711 5.97798H7.26617L6.27184 6.7004L6.65164 5.53149Z" fill="white"/>
<path d="M6.65164 7.7937L7.03144 8.9626L6.03711 8.24018H7.26617L6.27184 8.9626L6.65164 7.7937Z" fill="white"/>
<path d="M6.65164 10.0576L7.03144 11.2265L6.03711 10.5041H7.26617L6.27184 11.2265L6.65164 10.0576Z" fill="white"/>
<path d="M7.98172 2.1438L8.36152 3.3127L7.36719 2.59028H8.59625L7.60192 3.3127L7.98172 2.1438Z" fill="white"/>
<path d="M7.98172 4.40503L8.36152 5.57393L7.36719 4.85151H8.59625L7.60192 5.57393L7.98172 4.40503Z" fill="white"/>
<path d="M7.98172 6.66724L8.36152 7.83614L7.36719 7.11372H8.59625L7.60192 7.83614L7.98172 6.66724Z" fill="white"/>
<path d="M7.98172 8.92822L8.36152 10.0971L7.36719 9.3747H8.59625L7.60192 10.0971L7.98172 8.92822Z" fill="white"/>
<path d="M9.30984 1.00928L9.68964 2.17818L8.69531 1.45576H9.92437L8.93004 2.17818L9.30984 1.00928Z" fill="white"/>
<path d="M9.30984 3.27051L9.68964 4.43941L8.69531 3.71699H9.92437L8.93004 4.43941L9.30984 3.27051Z" fill="white"/>
<path d="M9.30984 5.53149L9.68964 6.7004L8.69531 5.97798H9.92437L8.93004 6.7004L9.30984 5.53149Z" fill="white"/>
<path d="M9.30984 7.7937L9.68964 8.9626L8.69531 8.24018H9.92437L8.93004 8.9626L9.30984 7.7937Z" fill="white"/>
<path d="M9.30984 10.0564L9.68964 11.2253L8.69531 10.5029H9.92437L8.93004 11.2253L9.30984 10.0564Z" fill="white"/>
<path d="M10.6399 2.14355L11.0197 3.31246L10.0254 2.59004H11.2544L10.2601 3.31246L10.6399 2.14355Z" fill="white"/>
<path d="M10.6399 4.40479L11.0197 5.57369L10.0254 4.85127H11.2544L10.2601 5.57369L10.6399 4.40479Z" fill="white"/>
<path d="M10.6399 6.66699L11.0197 7.8359L10.0254 7.11347H11.2544L10.2601 7.8359L10.6399 6.66699Z" fill="white"/>
<path d="M10.6399 8.92822L11.0197 10.0971L10.0254 9.3747H11.2544L10.2601 10.0971L10.6399 8.92822Z" fill="white"/>
<path d="M11.972 1.00977L12.3518 2.17867L11.3574 1.45625H12.5865L11.5922 2.17867L11.972 1.00977Z" fill="white"/>
<path d="M11.972 3.271L12.3518 4.4399L11.3574 3.71748H12.5865L11.5922 4.4399L11.972 3.271Z" fill="white"/>
<path d="M11.972 5.53198L12.3518 6.70089L11.3574 5.97846H12.5865L11.5922 6.70089L11.972 5.53198Z" fill="white"/>
<path d="M11.972 7.79419L12.3518 8.96309L11.3574 8.24067H12.5865L11.5922 8.96309L11.972 7.79419Z" fill="white"/>
<path d="M11.972 10.0581L12.3518 11.227L11.3574 10.5046H12.5865L11.5922 11.227L11.972 10.0581Z" fill="white"/>
<path d="M13.302 2.14404L13.6818 3.31295L12.6875 2.59052H13.9166L12.9222 3.31295L13.302 2.14404Z" fill="white"/>
<path d="M13.302 4.40527L13.6818 5.57418L12.6875 4.85175H13.9166L12.9222 5.57418L13.302 4.40527Z" fill="white"/>
<path d="M13.302 6.6665L13.6818 7.83541L12.6875 7.11299H13.9166L12.9222 7.83541L13.302 6.6665Z" fill="white"/>
<path d="M13.302 8.92871L13.6818 10.0976L12.6875 9.37519H13.9166L12.9222 10.0976L13.302 8.92871Z" fill="white"/>
<path d="M14.6302 1.01318L15.01 2.18209L14.0156 1.45966H15.2447L14.2504 2.18209L14.6302 1.01318Z" fill="white"/>
<path d="M14.6302 3.27441L15.01 4.44332L14.0156 3.7209H15.2447L14.2504 4.44332L14.6302 3.27441Z" fill="white"/>
<path d="M14.6302 5.5354L15.01 6.7043L14.0156 5.98188H15.2447L14.2504 6.7043L14.6302 5.5354Z" fill="white"/>
<path d="M14.6302 7.79761L15.01 8.96651L14.0156 8.24409H15.2447L14.2504 8.96651L14.6302 7.79761Z" fill="white"/>
<path d="M14.6302 10.0598L15.01 11.2287L14.0156 10.5063H15.2447L14.2504 11.2287L14.6302 10.0598Z" fill="white"/>
</g>
</svg>
