<svg width="34" height="22" viewBox="0 0 34 22" fill="none" xmlns="http://www.w3.org/2000/svg">
<mask id="mask0_1883_3796" style="mask-type:alpha" maskUnits="userSpaceOnUse" x="0" y="0" width="34" height="22">
<path d="M0 2.95564C0 1.48104 1.1954 0.285645 2.67 0.285645H31.33C32.8046 0.285645 34 1.48104 34 2.95564V18.6156C34 20.0902 32.8046 21.2856 31.33 21.2856H2.67C1.1954 21.2856 0 20.0902 0 18.6156V2.95564Z" fill="#1E50A0"/>
</mask>
<g mask="url(#mask0_1883_3796)">
<path d="M-4 -2.71436H38V24.2856H-4V-2.71436Z" fill="#1E50A0"/>
<path d="M26.9884 12.3202L27.4968 10.675L28.0051 12.3202L26.6742 11.3029L28.3193 11.3035L26.9884 12.3202ZM8.48967 16.7369L7.63528 17.5469L7.72028 16.3569L6.57031 16.177L7.52999 15.5025L6.95035 14.4682L8.06247 14.8176L8.48967 13.7082L8.91686 14.8176L10.029 14.4682L9.44934 15.5025L10.409 16.177L9.25905 16.3569L9.34405 17.5469L8.48967 16.7369ZM21.651 10.3877L21.0406 10.9662L21.1015 10.1162L20.28 9.98737L20.9655 9.50588L20.5514 8.76721L21.3461 9.01672L21.651 8.2243L21.9559 9.01672L22.7505 8.76721L22.3364 9.50588L23.0219 9.98737L22.2004 10.1162L22.2613 10.9662L21.651 10.3877ZM29.8768 8.74253L29.2664 9.32108L29.3273 8.47108L28.5058 8.34221L29.1913 7.86072L28.7772 7.12204L29.5719 7.37156L29.8768 6.57914L30.1817 7.37156L30.9763 7.12204L30.5622 7.86072L31.2477 8.34221L30.4262 8.47108L30.4871 9.32108L29.8768 8.74253ZM25.4897 5.45221L24.8793 6.03075L24.9402 5.18075L24.1187 5.05188L24.8042 4.5704L24.3902 3.83172L25.1848 4.08124L25.4897 3.28882L25.7946 4.08124L26.5892 3.83172L26.1752 4.5704L26.8606 5.05188L26.0392 5.18075L26.1 6.03075L25.4897 5.45221ZM25.4897 16.9683L24.8793 17.5469L24.9402 16.6969L24.1187 16.568L24.8042 16.0865L24.3902 15.3479L25.1848 15.5974L25.4897 14.8049L25.7946 15.5974L26.5892 15.3479L26.1752 16.0865L26.8606 16.568L26.0392 16.6969L26.1 17.5469L25.4897 16.9683Z" fill="white" stroke="white" stroke-width="0.548387" stroke-linecap="round" stroke-linejoin="round"/>
<path d="M1.88291 0.285645H-0.367188V1.63559L14.749 10.7054H16.9991V9.3555L1.88291 0.285645Z" fill="white"/>
<path d="M16.9991 1.63559V0.285645H14.749L-0.367188 9.3555V10.7054H1.88291L16.9991 1.63559Z" fill="white"/>
<path d="M-0.367188 3.75854H16.9991V7.23181H-0.367188V3.75854Z" fill="white"/>
<path d="M6.57812 0.285645H10.0514V10.7054H6.57812V0.285645Z" fill="white"/>
<path d="M7.73828 0.285645H8.89604V10.7054H7.73828V0.285645Z" fill="#D22F27"/>
<path d="M-0.367188 4.91667H16.9991V6.07442H-0.367188V4.91667ZM16.9991 9.3555L13.4605 7.23218H11.2104L16.9991 10.7054V9.3555ZM16.9991 0.285645H14.749L10.0526 3.10362V3.75891H11.2104L16.9991 0.285645ZM-0.367188 1.63559L3.17149 3.75891H5.42159L-0.367188 0.285645V1.63559ZM-0.367188 10.7054H1.88291L6.57934 7.88746V7.23218H5.42159L-0.367188 10.7054Z" fill="#D22F27"/>
</g>
</svg>
