<svg width="34" height="22" viewBox="0 0 34 22" fill="none" xmlns="http://www.w3.org/2000/svg">
<mask id="mask0_1883_3795" style="mask-type:alpha" maskUnits="userSpaceOnUse" x="0" y="0" width="34" height="22">
<path d="M0 3.62004C0 2.14728 1.19391 0.953369 2.66667 0.953369H31.3333C32.8061 0.953369 34 2.14728 34 3.62004V19.2867C34 20.7595 32.8061 21.9534 31.3333 21.9534H2.66667C1.19391 21.9534 0 20.7595 0 19.2867V3.62004Z" fill="#1E50A0"/>
</mask>
<g mask="url(#mask0_1883_3795)">
<path d="M0 0.953369H34V21.9534H0V0.953369Z" fill="#005430"/>
<path d="M0 0.953369H35V21.9534H0V0.953369Z" fill="white"/>
<path d="M8.75 0.953369H35V21.9534H8.75L14 19.8534L8.75 17.7534L14 15.6534L8.75 13.5534L14 11.4534L8.75 9.35337L14 7.25337L8.75 5.15337L14 3.05337L8.75 0.953369Z" fill="#DA291C"/>
</g>
</svg>
