<svg width="34" height="22" viewBox="0 0 34 22" fill="none" xmlns="http://www.w3.org/2000/svg">
<mask id="mask0_1883_3845" style="mask-type:alpha" maskUnits="userSpaceOnUse" x="0" y="0" width="34" height="22">
<path d="M0 3.39103C0 1.91827 1.19391 0.724365 2.66667 0.724365H31.3333C32.8061 0.724365 34 1.91827 34 3.39103V19.0577C34 20.5305 32.8061 21.7244 31.3333 21.7244H2.66667C1.19391 21.7244 0 20.5305 0 19.0577V3.39103Z" fill="#1E50A0"/>
</mask>
<g mask="url(#mask0_1883_3845)">
<path d="M0 0.724365H34V21.7244H0V0.724365Z" fill="#005430"/>
<path d="M34 -0.275635H0V22.391H34V-0.275635Z" fill="white"/>
<path d="M16.9992 17.8578C20.7548 17.8578 23.7992 14.8133 23.7992 11.0578C23.7992 7.30222 20.7548 4.25775 16.9992 4.25775C13.2437 4.25775 10.1992 7.30222 10.1992 11.0578C10.1992 14.8133 13.2437 17.8578 16.9992 17.8578Z" fill="#BC002D"/>
</g>
</svg>
