<svg width="34" height="22" viewBox="0 0 34 22" fill="none" xmlns="http://www.w3.org/2000/svg">
<mask id="mask0_1883_3844" style="mask-type:alpha" maskUnits="userSpaceOnUse" x="0" y="0" width="34" height="22">
<path d="M0 3.15141C0 1.67865 1.19391 0.484741 2.66667 0.484741H31.3333C32.8061 0.484741 34 1.67865 34 3.15141V18.8181C34 20.2908 32.8061 21.4847 31.3333 21.4847H2.66667C1.19391 21.4847 0 20.2908 0 18.8181V3.15141Z" fill="#1E50A0"/>
</mask>
<g mask="url(#mask0_1883_3844)">
<path d="M0 0.484741H34V21.4847H0V0.484741Z" fill="#005430"/>
<path d="M0 0.484741H34V23.1514H0" fill="#EE1C25"/>
<path d="M5.66719 2.75171L7.66566 8.90237L2.43359 5.10105H8.90078L3.66872 8.90237" fill="#FFFF00"/>
<path d="M11.7771 1.70853L11.5878 3.85593L10.4787 2.00741L12.4625 2.85098L10.3618 3.33458" fill="#FFFF00"/>
<path d="M14.4126 4.22909L13.4049 6.13478L13.1 4.00072L14.601 5.54802L12.4772 5.1785" fill="#FFFF00"/>
<path d="M14.6645 8.02948L12.9671 9.35829L13.5593 7.28551L14.2985 9.31053L12.5102 8.10676" fill="#FFFF00"/>
<path d="M11.7332 9.62443L11.6331 11.7778L10.4483 9.97689L12.4654 10.7375L10.3865 11.3078" fill="#FFFF00"/>
</g>
</svg>
