<svg width="34" height="22" viewBox="0 0 34 22" fill="none" xmlns="http://www.w3.org/2000/svg">
<mask id="mask0_1883_3840" style="mask-type:alpha" maskUnits="userSpaceOnUse" x="0" y="0" width="34" height="22">
<path d="M0 3.62504C0 2.15228 1.19391 0.958374 2.66667 0.958374H31.3333C32.8061 0.958374 34 2.15228 34 3.62504V19.2917C34 20.7645 32.8061 21.9584 31.3333 21.9584H2.66667C1.19391 21.9584 0 20.7645 0 19.2917V3.62504Z" fill="#1E50A0"/>
</mask>
<g mask="url(#mask0_1883_3840)">
<path d="M0 0.958374H34V21.9584H0V0.958374Z" fill="#005430"/>
<path d="M43 0.958374H0V22.4584H43V0.958374Z" fill="#BF0000"/>
<path d="M-0.464844 0.958374H34V23.9349H-0.464844V0.958374Z" fill="white"/>
<path d="M-0.464844 0.958374H34V12.4467H-0.464844V0.958374Z" fill="#ED2939"/>
<path d="M6.81622 10.9307C9.15146 10.9307 11.0445 9.03757 11.0445 6.70233C11.0445 4.36709 9.15146 2.474 6.81622 2.474C4.48098 2.474 2.58789 4.36709 2.58789 6.70233C2.58789 9.03757 4.48098 10.9307 6.81622 10.9307Z" fill="white"/>
<path d="M8.73028 10.9307C11.0655 10.9307 12.9586 9.03757 12.9586 6.70233C12.9586 4.36709 11.0655 2.474 8.73028 2.474C6.39504 2.474 4.50195 4.36709 4.50195 6.70233C4.50195 9.03757 6.39504 10.9307 8.73028 10.9307Z" fill="#ED2939"/>
<path d="M9.1252 3.17664L8.47807 5.16829L10.1723 3.93738H8.07812L9.77233 5.16829L9.1252 3.17664Z" fill="white"/>
<path d="M12.4798 5.61314L10.3857 5.61314L12.0799 6.84405L11.4327 4.85239L10.7856 6.84405L12.4798 5.61314Z" fill="white"/>
<path d="M7.05134 9.55556L8.74554 8.32465L6.65139 8.32465L8.34559 9.55557L7.69846 7.56391L7.05134 9.55556Z" fill="white"/>
<path d="M11.2055 9.56631L10.5392 7.5664L9.91337 9.55266L11.5922 8.33874L9.50156 8.31665L11.2055 9.56631Z" fill="white"/>
<path d="M5.76308 5.60462L7.48771 6.84896L6.80736 4.86436L6.18355 6.83116L7.87324 5.63341L5.76308 5.60462Z" fill="white"/>
</g>
</svg>
