<svg width="34" height="22" viewBox="0 0 34 22" fill="none" xmlns="http://www.w3.org/2000/svg">
<mask id="mask0_1883_3835" style="mask-type:alpha" maskUnits="userSpaceOnUse" x="0" y="0" width="34" height="22">
<path d="M0 3.65544C0 2.18268 1.19391 0.98877 2.66667 0.98877H31.3333C32.8061 0.98877 34 2.18268 34 3.65544V19.3221C34 20.7949 32.8061 21.9888 31.3333 21.9888H2.66667C1.19391 21.9888 0 20.7949 0 19.3221V3.65544Z" fill="#1E50A0"/>
</mask>
<g mask="url(#mask0_1883_3835)">
<path d="M0 0.98877H34V21.9888H0V0.98877Z" fill="#005430"/>
<path d="M0 22.6554H34V-0.0112305H0V22.6554Z" fill="#005430"/>
<path d="M25.4997 8.99183C25.4973 8.59365 25.3428 7.52111 25.3036 7.1613C25.2645 6.80149 25.225 6.47507 25.2346 6.39863C25.2439 6.32487 25.3574 6.50118 25.4174 6.51544C25.4484 6.50922 25.4346 6.39786 25.3782 6.30277C25.34 6.23819 25.2098 5.99672 25.1309 5.85523C25.0937 5.78826 25.0854 5.74942 25.0675 5.74119C25.0498 5.73296 24.906 6.02293 24.9218 6.05508C24.961 6.11401 24.9879 6.14214 24.994 6.24623C25.0002 6.35031 25.054 7.09347 25.1226 7.65677C25.1742 8.08173 25.2875 8.99728 25.2916 9.56651C25.2927 9.7522 25.2721 9.92919 25.2474 10.0031C25.184 10.1193 25.0848 10.224 24.7156 10.4401C24.3006 10.683 23.7469 10.8851 23.5089 11.0204C23.3609 11.1048 23.41 11.1161 23.5388 11.0791C23.6673 11.0422 24.3318 10.9239 24.6547 10.7874C24.9578 10.6591 25.1545 10.4443 25.3038 10.131C25.4882 9.74359 25.5023 9.41488 25.4997 8.99183Z" fill="white"/>
<path d="M24.2158 5.96772C24.2479 5.95528 24.5135 5.9416 24.585 5.95633C24.538 6.02349 24.2195 6.17216 24.2182 6.19943C24.2269 6.2178 24.4382 6.16547 24.5048 6.13638C24.5484 6.11017 24.5774 6.06961 24.6097 6.03593C24.6859 5.9483 24.7762 5.78576 24.7534 5.76538C24.7165 5.73247 24.3544 5.75294 24.3067 5.75974C24.2748 5.76433 24.1936 5.90974 24.1787 5.94705C24.1641 5.98437 24.1837 5.98016 24.2158 5.96772Z" fill="white"/>
<path d="M24.7577 8.32761C24.8131 8.14009 24.8267 7.91259 24.7514 7.67313C24.674 7.4266 24.4817 7.2763 24.3431 7.19929L24.3184 7.43664C24.3184 7.43664 24.5128 7.53327 24.6458 7.77655C24.73 7.93087 24.7651 8.14909 24.6985 8.39237C24.6875 8.45274 24.7306 8.41945 24.7577 8.32761Z" fill="white"/>
<path d="M22.7004 9.51807C22.7503 9.34921 22.7625 9.14439 22.6948 8.92875C22.625 8.7067 22.4519 8.57133 22.327 8.50226L22.3047 8.71589C22.3047 8.71589 22.4798 8.80295 22.5995 9.02184C22.6754 9.16065 22.7069 9.35744 22.6472 9.57643C22.6373 9.63058 22.6761 9.60073 22.7004 9.51807Z" fill="white"/>
<path d="M15.559 6.28626C15.6391 6.43273 15.6723 6.64014 15.6093 6.87118C15.5987 6.92849 15.6395 6.89701 15.6655 6.80976C15.7178 6.63182 15.7309 6.41561 15.6593 6.18801C15.5857 5.95372 15.4031 5.81107 15.2713 5.73808L15.248 5.96347C15.248 5.96347 15.4328 6.05522 15.559 6.28626Z" fill="white"/>
<path d="M10.738 6.36192C10.8053 6.51958 10.8098 6.73244 10.7012 6.95669C10.68 7.01304 10.7315 6.98635 10.7746 6.90207C10.8628 6.72977 10.9122 6.51413 10.8675 6.27591C10.8217 6.031 10.6377 5.86406 10.5 5.77365L10.4375 5.99742C10.4375 5.99742 10.6319 6.11337 10.738 6.36192Z" fill="white"/>
<path d="M12.071 9.88549C12.1565 9.72687 12.1921 9.6201 12.2301 9.43221C12.2633 9.26689 12.2655 9.07594 12.2535 8.88154C12.5093 8.77726 12.8141 8.60419 12.9165 8.59147C12.8465 8.83198 13.0137 9.09153 13.3515 9.05767C13.3773 9.32965 13.3995 9.56854 13.4129 9.71022C13.4404 10.0007 13.4363 10.3667 13.4355 10.4303C13.4343 10.4942 13.4806 10.4822 13.5281 10.3398C13.5914 10.1492 13.611 9.65158 13.588 9.32248C13.5825 9.2402 13.5732 9.12913 13.5619 9.00256C13.7809 8.90125 13.8173 8.7057 13.8992 8.62237C13.973 8.88116 14.3797 8.91627 14.5052 8.86087C14.6608 8.79209 14.7119 8.66839 14.7519 8.38129C14.792 8.09428 14.6751 7.97871 14.6333 7.94743C14.6292 7.98216 14.5274 8.31948 14.5274 8.31948C14.5274 8.31948 14.6239 8.42147 14.6288 8.4716C14.5501 8.54278 14.3842 8.54718 14.245 8.50183C14.1056 8.45648 14.0629 8.37306 14.0711 8.31709C14.0792 8.26094 14.1317 8.20985 14.1334 8.14144C14.135 8.07304 14.1022 8.09284 14.0464 8.1534C13.9906 8.21406 13.9546 8.26859 13.8774 8.39879C13.8143 8.50527 13.7119 8.63519 13.5312 8.67231C13.5014 8.35967 13.4673 8.02702 13.4446 7.81808C13.4327 7.70778 13.3138 6.75453 13.3053 6.64786C13.298 6.55497 13.2842 6.44543 13.2865 6.39396C13.2887 6.35301 13.3144 6.36927 13.3541 6.41213C13.394 6.4549 13.4636 6.52952 13.4756 6.52368C13.5162 6.50378 13.4747 6.37989 13.4216 6.26892C13.3686 6.15765 13.1878 5.71872 13.1498 5.70064C13.1302 5.69146 13.0081 5.96163 13.0009 6.01482C13.0198 6.04811 13.0693 6.10044 13.071 6.2493C13.0717 6.29082 13.0983 6.6823 13.1354 7.05244C13.1678 7.37935 13.2107 7.6895 13.2149 7.72557C13.2444 7.97508 13.2802 8.32676 13.3142 8.6725C13.1181 8.63519 13.066 8.50585 13.0703 8.43209C13.0753 8.34885 13.1128 8.25491 13.0948 8.23367C13.0571 8.211 12.8323 8.33661 12.5189 8.4716C12.4307 8.50948 12.3314 8.55014 12.2266 8.5887C12.1992 8.35306 12.1632 8.12901 12.1487 7.95766L12.147 7.93863C12.3531 7.92533 12.5219 7.82124 12.5987 7.72213C12.6946 7.59824 12.7616 7.34328 12.7682 7.14792C12.7747 6.95238 12.6169 6.59486 12.5793 6.48121C12.5414 6.36746 12.5219 6.28862 12.5186 6.2493C12.5152 6.20998 12.6038 6.29484 12.6596 6.31149C12.6974 6.31905 12.6843 6.23725 12.6382 6.18109C12.5924 6.12513 12.3444 5.74886 12.327 5.77527C12.3164 5.79076 12.217 6.06753 12.2105 6.10992C12.2496 6.13575 12.2954 6.20692 12.2986 6.27514C12.3019 6.34335 12.3565 6.64327 12.4171 6.80992C12.4778 6.97658 12.6071 7.29631 12.6153 7.38422C12.5229 7.44938 12.3126 7.55968 12.1045 7.55308C12.0689 7.26148 12.0237 6.92281 11.9996 6.68297C11.9903 6.59027 11.9897 6.49135 11.9912 6.43969C11.9923 6.39874 12.0218 6.40438 12.0623 6.44648C12.1031 6.48857 12.1656 6.5498 12.1784 6.5454C12.2064 6.53612 12.1822 6.44323 12.1268 6.33292C12.0715 6.22261 11.8515 5.75604 11.8129 5.73862C11.7933 5.72973 11.6948 5.99176 11.6886 6.04524C11.7082 6.07834 11.7586 6.12953 11.7636 6.27839C11.7675 6.39692 11.8253 6.97782 11.8747 7.48946C11.6688 7.38298 11.5986 7.23077 11.5731 6.97524C11.5553 6.7971 11.5536 6.46896 11.49 6.19449C11.4542 6.03931 11.3788 5.88165 11.2894 5.79794C11.2681 5.8495 11.1729 6.16607 11.1729 6.16607C11.2039 6.25696 11.3005 6.563 11.2971 6.8282C11.2939 7.09339 11.273 7.35265 10.9758 7.53127C10.6789 7.70998 10.2334 7.6389 10.1234 7.36012C10.0134 7.08115 10.2579 6.38171 10.2547 6.21659C10.2514 6.05146 10.2219 6.02869 10.1529 6.05596C10.084 6.08322 9.94295 6.24242 9.82147 6.50139C9.69998 6.76056 9.64597 7.08153 9.57695 7.29975C9.50814 7.51797 9.39794 7.73906 9.22741 7.72682C9.05688 7.71476 8.9651 7.55873 8.91263 7.33304C8.86007 7.10717 8.89225 6.80973 8.90653 6.73349C8.94212 6.54253 8.85965 6.58166 8.80916 6.88148C8.77791 7.06641 8.74687 7.36174 8.85686 7.67085C8.96665 7.97996 9.15384 8.09524 9.31785 8.05573C9.48196 8.01641 9.62621 7.63153 9.67712 7.45866C9.72792 7.28607 9.95526 6.51947 10.084 6.48178C10.102 6.56817 9.98392 6.84666 9.94615 7.17241C9.90849 7.49817 9.99634 7.93576 10.4098 8.01143C10.8233 8.0872 11.1038 7.81904 11.2056 7.63287C11.3074 7.44641 11.3549 7.25096 11.3664 7.15251C11.3796 7.4024 11.5501 7.79264 11.8814 7.9039L11.9155 7.91375C11.9359 8.11829 11.9691 8.3853 11.9996 8.66571C11.9352 8.68561 11.8701 8.70359 11.8053 8.71909C11.797 8.69221 11.7879 8.6659 11.7769 8.6417C11.6758 8.42424 11.5084 8.22382 11.2765 8.23769C11.0397 8.25175 10.7814 8.56784 10.7927 8.79869C10.8001 8.95396 10.8856 9.08139 11.1965 9.11401C11.3384 9.12903 11.4892 9.11325 11.6449 9.07929C11.6669 9.14348 11.6807 9.20729 11.6823 9.26546C11.5838 9.38064 10.7687 9.99541 10.1584 10.0545C9.54808 10.1136 9.36193 9.79365 9.35582 9.47249C9.35127 9.22815 9.49821 8.98429 9.60148 8.81553C9.74924 8.70742 9.87051 8.57224 9.94709 8.46796C9.96788 8.48078 9.98765 8.49265 10.0065 8.50365C10.0794 8.54603 10.1085 8.60936 10.1085 8.60936C10.122 8.5887 10.1847 8.47581 10.1601 8.42061C10.1489 8.40702 10.0937 8.37306 10.0274 8.33278C10.097 8.15924 10.0961 7.98598 10.0059 7.94743C9.90497 7.90447 9.77325 8.02387 9.71644 8.09667C9.68695 8.13456 9.67567 8.17751 9.67546 8.21358C9.67505 8.25998 9.69688 8.30188 9.75089 8.33919C9.8047 8.37593 9.85468 8.40922 9.90166 8.43926C9.76828 8.57932 9.45309 8.78453 9.26021 8.90507C9.25307 8.88737 9.22482 8.90603 9.18685 8.9508L9.13459 8.98304C8.98072 9.07718 8.61173 9.28392 8.53919 9.33453C8.46655 9.38524 8.51208 9.37605 8.53919 9.36476C8.59041 9.33711 8.65767 9.30363 8.73321 9.2667C8.8402 9.21437 8.96468 9.15515 9.08637 9.09574C9.05036 9.15678 9.01311 9.22815 8.9801 9.30602C8.83492 9.6488 8.60024 10.3592 9.10789 10.7867C9.59361 11.1959 10.4285 11.0402 11.1208 10.615C11.8133 10.1896 11.9628 10.0401 12.071 9.88549ZM9.8136 8.19559C9.78959 8.17789 9.78628 8.15426 9.80584 8.13781C9.83078 8.11657 9.86265 8.09648 9.89887 8.08969C9.97564 8.07543 10.0063 8.16364 9.97544 8.30102C9.91708 8.26534 9.85706 8.22783 9.8136 8.19559ZM11.4018 8.77506C11.0492 8.77669 11.033 8.71268 11.0396 8.67174C11.0461 8.63098 11.1559 8.51915 11.2952 8.59291C11.3541 8.62419 11.4204 8.68963 11.4817 8.77181C11.4546 8.77382 11.4279 8.77487 11.4018 8.77506ZM10.322 10.629C9.6559 10.8108 9.00618 10.5291 8.96686 9.9715C8.93674 9.54567 9.09206 9.2248 9.19223 9.04399C9.28774 8.99672 9.37797 8.9508 9.45257 8.90967C9.27822 9.19045 9.17619 9.56653 9.24438 9.88511C9.32157 10.246 9.63552 10.4648 10.1671 10.3942C10.6934 10.3244 11.405 9.82388 11.6067 9.63512C11.6682 9.56701 11.7088 9.50559 11.764 9.38045C11.7868 9.32908 11.8188 9.26125 11.8307 9.18462C11.8384 9.13468 11.8426 9.0813 11.8435 9.02696C11.9053 9.00849 11.9674 8.98783 12.0299 8.96563C12.0511 9.19409 12.0667 9.41929 12.0676 9.61408C11.7397 9.99866 10.9881 10.4472 10.322 10.629Z" fill="white"/>
<path d="M21.9722 9.16701C21.9497 8.7939 21.8953 8.11857 21.8648 7.77598C21.8379 7.47108 21.7851 7.0532 21.7464 6.68535C21.7366 6.59275 21.7356 6.50406 21.7366 6.4525C21.7378 6.41174 21.7785 6.42743 21.8193 6.46933C21.8601 6.51124 21.9238 6.56385 21.9358 6.55744C21.9757 6.53678 21.928 6.43461 21.872 6.32468C21.816 6.21457 21.594 5.75909 21.5554 5.74177C21.5358 5.73297 21.4318 6.00582 21.4258 6.0593C21.4456 6.09221 21.4965 6.1432 21.5019 6.29206C21.5075 6.44102 21.5828 7.12581 21.6371 7.67964C21.6747 8.06461 21.7234 8.69278 21.7588 9.16643C21.757 9.1672 21.7922 9.61675 21.796 9.66726C21.8177 9.95809 21.8065 10.324 21.8043 10.3876C21.8019 10.4514 21.8486 10.4403 21.8987 10.2987C21.9497 10.1541 21.9788 9.83133 21.9827 9.53992L21.9722 9.16701Z" fill="white"/>
<path d="M20.0815 7.86109C20.0132 7.88194 19.906 7.80971 19.9142 7.65827C19.9216 7.52146 19.9802 7.39336 20.0028 7.31252C20.0338 7.20097 20.034 7.09344 20.0077 7.15438C19.9486 7.29061 19.8383 7.55399 19.8156 7.7327C19.7927 7.91141 19.8507 8.02659 19.9294 8.06591C20.0275 8.11518 20.0982 8.03702 20.146 7.92184C20.1919 7.81153 20.1832 7.68276 20.1514 7.71309C20.1247 7.74475 20.1147 7.85085 20.0815 7.86109Z" fill="white"/>
<path d="M19.099 8.41121C19.1353 8.31497 19.1437 8.22064 19.1159 8.27239C19.0531 8.38834 18.9354 8.6124 18.901 8.76805C18.8666 8.92371 18.9083 9.02904 18.9746 9.06893C19.0571 9.11887 19.1251 9.05487 19.1765 8.95681C19.2257 8.86296 19.2282 8.74902 19.198 8.7737C19.1719 8.79972 19.1546 8.89223 19.1248 8.89902C19.0628 8.9127 18.9745 8.84191 18.9936 8.70912C19.011 8.58954 19.0728 8.48076 19.099 8.41121Z" fill="white"/>
<path d="M16.2406 10.4415C16.3012 10.3433 16.3313 10.2414 16.2893 10.2929C16.1955 10.4079 16.0181 10.6311 15.9465 10.7948C15.8751 10.9584 15.8978 11.0814 15.9615 11.1373C16.0408 11.2072 16.1293 11.1498 16.2066 11.0523C16.2808 10.9588 16.3085 10.8348 16.2697 10.856C16.2357 10.8798 16.1968 10.9777 16.1625 10.9795C16.092 10.9829 16.0107 10.8891 16.0606 10.7477C16.1057 10.6201 16.1969 10.5127 16.2406 10.4415Z" fill="white"/>
<path d="M21.2527 7.57442C21.1833 7.59183 21.0806 7.51405 21.0978 7.36318C21.1134 7.22704 21.1798 7.10219 21.207 7.02279C21.2448 6.91287 21.2514 6.80562 21.2215 6.86493C21.1544 6.99811 21.0286 7.25526 20.9949 7.43263C20.9613 7.60991 21.0121 7.72787 21.0885 7.77121C21.1837 7.82516 21.2586 7.75092 21.3134 7.63823C21.3659 7.5305 21.3651 7.40154 21.3312 7.43024C21.3028 7.46067 21.2865 7.566 21.2527 7.57442Z" fill="white"/>
<path d="M21.2311 9.42502C21.3261 9.47897 21.4014 9.40473 21.456 9.29204C21.5084 9.18431 21.5077 9.05535 21.474 9.08405C21.4454 9.11428 21.4291 9.21981 21.3953 9.22822C21.3258 9.24554 21.223 9.16786 21.2404 9.01699C21.256 8.88085 21.3222 8.75591 21.3495 8.6766C21.3873 8.56667 21.3938 8.45924 21.364 8.51874C21.2968 8.65191 21.1712 8.90907 21.1375 9.08625C21.1039 9.26372 21.1547 9.38168 21.2311 9.42502Z" fill="white"/>
<path d="M22.4453 7.06149C22.4911 6.92851 22.4989 6.79869 22.4627 6.87053C22.3814 7.03164 22.2293 7.34276 22.1885 7.55753C22.1479 7.77212 22.2095 7.91476 22.3019 7.96728C22.4169 8.03253 22.5078 7.94269 22.5741 7.80646C22.6374 7.67607 22.6364 7.51984 22.5957 7.55476C22.5612 7.5914 22.5414 7.71883 22.5005 7.72907C22.4167 7.75011 22.2922 7.65607 22.3132 7.47353C22.3321 7.30879 22.4123 7.15773 22.4453 7.06149Z" fill="white"/>
<path d="M12.7427 9.36125C12.8175 9.19919 12.8446 9.03694 12.7896 9.12332C12.6663 9.31667 12.4343 9.69102 12.355 9.95622C12.2756 10.2215 12.3344 10.4079 12.4436 10.4843C12.5797 10.5792 12.7059 10.4763 12.807 10.3126C12.9037 10.1556 12.923 9.95899 12.8672 9.99831C12.8191 10.0404 12.7775 10.1986 12.7247 10.207C12.6163 10.224 12.4722 10.0918 12.5225 9.86457C12.568 9.65955 12.6887 9.47854 12.7427 9.36125Z" fill="white"/>
<path d="M23.2185 10.968C23.2758 10.921 23.7744 10.6525 23.8662 10.598C23.8662 10.598 23.96 10.4449 23.9319 10.4286C23.9036 10.4124 23.7216 10.5779 23.6084 10.5825C23.4951 10.5871 23.34 10.5038 23.335 10.4356C23.3497 10.3842 23.486 10.3068 23.5353 10.3037C23.5845 10.3008 23.5765 10.4129 23.593 10.4266C23.6094 10.4401 23.6749 10.3492 23.6832 10.3113C23.6913 10.2736 23.6846 10.1153 23.5944 10.138C23.4517 10.1741 23.2365 10.4387 23.212 10.5219C23.1873 10.6053 23.3202 10.6779 23.4173 10.7175C23.409 10.7205 23.3366 10.7553 23.2907 10.8007C23.2907 10.8007 23.2415 10.8559 23.2185 10.968Z" fill="white"/>
<path d="M21.5193 11.3008C21.5766 11.2538 22.0752 10.9855 22.167 10.9307C22.167 10.9307 22.261 10.7777 22.2327 10.7614C22.2044 10.7451 22.0224 10.9106 21.9092 10.9152C21.7959 10.9198 21.6408 10.8366 21.6358 10.7684C21.6505 10.7169 21.7868 10.6396 21.836 10.6366C21.8853 10.6336 21.8773 10.7456 21.8938 10.7592C21.9102 10.7729 21.9757 10.682 21.984 10.6441C21.9921 10.6063 21.9851 10.4481 21.8952 10.4708C21.7525 10.507 21.5373 10.7714 21.5128 10.8549C21.488 10.9381 21.621 11.0107 21.7179 11.0502C21.7098 11.0533 21.6374 11.088 21.5915 11.1335C21.5915 11.1335 21.5423 11.1887 21.5193 11.3008Z" fill="white"/>
<path d="M17.6897 6.48702C17.7344 6.53897 18.0272 6.91103 18.2566 7.14494C18.4859 7.37904 18.879 7.75789 19.1678 8.01754C19.2237 8.06786 19.283 8.12239 19.3433 8.17912C19.4162 8.7384 19.5004 9.45008 19.5358 9.74436C19.5707 10.0341 19.5758 10.4001 19.5766 10.4638C19.5772 10.5276 19.6231 10.5146 19.6668 10.3714C19.7254 10.1792 19.7321 9.6815 19.701 9.35279C19.6818 9.14978 19.6364 8.76949 19.5924 8.41887C19.7629 8.58734 19.924 8.75447 20.0326 8.87961C20.2322 9.10931 20.4001 9.28257 20.5025 9.52949C20.5749 9.70418 20.5676 9.84319 20.5973 9.87064C20.6229 9.89437 20.6513 9.68533 20.6196 9.48261C20.5683 9.15341 20.4979 9.01383 20.0753 8.54381C19.9141 8.36414 19.7243 8.17635 19.5388 8.00079C19.5317 7.94664 19.5251 7.89651 19.5192 7.85203C19.5045 7.7421 19.3613 6.79173 19.3501 6.68525C19.3404 6.59255 19.3236 6.48339 19.3249 6.43182C19.3259 6.39078 19.352 6.40676 19.393 6.44866C19.4338 6.49047 19.5052 6.56366 19.5173 6.55725C19.5572 6.53658 19.5127 6.41384 19.4567 6.30372C19.401 6.1938 19.2088 5.75889 19.1702 5.74167C19.1507 5.73287 19.0355 6.00562 19.0296 6.059C19.0496 6.09191 19.1003 6.14319 19.1057 6.29186C19.1073 6.33338 19.1441 6.72428 19.1904 7.09337C19.2314 7.41951 19.2821 7.72881 19.2873 7.76459L19.2876 7.76736C19.0962 7.59286 18.9277 7.44467 18.8254 7.35158C18.5864 7.13432 18.0585 6.61876 18.0373 6.54156C18.0325 6.51716 18.0735 6.53218 18.1488 6.54423C18.2244 6.55638 18.2917 6.58212 18.2796 6.545C18.2741 6.52749 18.2451 6.48425 18.173 6.43967C18.1008 6.39499 17.9158 6.27923 17.7781 6.19734C17.6402 6.11554 17.5719 6.04695 17.5435 6.06656C17.5294 6.07622 17.5419 6.35644 17.5502 6.39136C17.5846 6.39432 17.6452 6.43488 17.6897 6.48702Z" fill="white"/>
<path d="M18.0677 5.9832C18.1243 5.97076 18.3925 5.97755 18.4899 5.99803C18.4491 6.02634 18.1747 6.16497 18.1205 6.19797C18.0666 6.23108 18.0529 6.25021 18.08 6.24696C18.1587 6.22514 18.3359 6.19797 18.4209 6.15368C18.501 6.11618 18.6375 5.93326 18.6905 5.86505C18.7433 5.79683 18.7433 5.76278 18.7299 5.7445C18.6756 5.71504 18.3261 5.68548 18.1575 5.72728C18.1109 5.75895 18.0196 5.92761 18.0062 5.96272C17.9927 5.99803 18.0111 5.99563 18.0677 5.9832Z" fill="white"/>
<path d="M19.5588 5.96169C19.6045 5.95164 19.8207 5.95709 19.899 5.97355C19.8662 5.99641 19.6452 6.10815 19.6015 6.13494C19.5578 6.16144 19.5469 6.17694 19.5687 6.17426C19.6322 6.15685 19.7751 6.13494 19.8435 6.09907C19.9079 6.06883 20.0179 5.92141 20.0607 5.86659C20.1032 5.81149 20.1032 5.78412 20.0923 5.76949C20.0489 5.74547 19.7671 5.72175 19.6312 5.75552C19.5936 5.78097 19.5202 5.91691 19.5093 5.94523C19.4983 5.97355 19.5133 5.97173 19.5588 5.96169Z" fill="white"/>
<path d="M20.7718 5.94557C20.8173 5.93553 21.0335 5.94098 21.1118 5.95743C21.0792 5.9803 20.8581 6.09204 20.8143 6.11864C20.7708 6.14533 20.7599 6.16083 20.7818 6.15815C20.8452 6.14074 20.9992 6.11864 21.0676 6.08295C21.1321 6.05272 21.2086 5.9053 21.2513 5.85029C21.2941 5.79537 21.2941 5.76782 21.283 5.75337C21.2395 5.72936 20.9799 5.70563 20.8443 5.73921C20.8066 5.76485 20.733 5.9008 20.7222 5.92912C20.7113 5.95743 20.7261 5.95562 20.7718 5.94557Z" fill="white"/>
<path d="M20.0154 6.53654C19.9435 6.64962 20.0336 6.74089 20.0664 6.83225C20.0221 6.87272 19.954 6.83579 19.9312 6.8003C19.8828 6.72749 19.899 6.57911 19.842 6.55624C19.8274 6.59633 19.8179 6.64082 19.8179 6.64082C19.8179 6.64082 19.8613 6.74232 19.8504 6.80948C19.8435 6.85004 19.8077 6.8974 19.7604 6.89836C19.6344 6.90142 19.6964 6.71486 19.6478 6.60915C19.6379 6.63498 19.6307 6.66272 19.6191 6.68693C19.628 6.71448 19.6329 6.75313 19.6344 6.77542C19.6372 6.81972 19.6337 6.86746 19.6413 6.90524C19.6517 6.95872 19.6814 6.99422 19.7268 6.99766C19.8209 7.00512 19.8639 6.92888 19.878 6.86631C19.8943 6.93012 20.0188 7.00044 20.08 6.92208C20.1611 6.81876 20.0963 6.73027 20.0547 6.63307C20.0247 6.56122 20.0334 6.51405 20.0154 6.53654Z" fill="white"/>
<path d="M16.4776 6.23716C16.4842 6.28366 16.5081 6.31542 16.5471 6.3202C16.6276 6.33044 16.6684 6.26643 16.6836 6.21324C16.6942 6.26883 16.7983 6.33426 16.8549 6.2694C16.9297 6.18359 16.8779 6.10475 16.8466 6.01932C16.8243 5.95599 16.8339 5.91581 16.8174 5.93446C16.7501 6.02879 16.8235 6.11136 16.8474 6.19143C16.8072 6.22434 16.7504 6.1898 16.7324 6.15852C16.6941 6.09375 16.715 5.96661 16.6672 5.94451C16.6527 5.97857 16.6425 6.01636 16.6425 6.01636C16.6425 6.01636 16.6749 6.10562 16.6623 6.16292C16.6545 6.19765 16.6215 6.23697 16.5805 6.23592C16.472 6.23352 16.5343 6.07529 16.4972 5.98239C16.4876 6.00411 16.48 6.02793 16.4688 6.04802C16.4753 6.07232 16.4776 6.10562 16.4776 6.12504C16.4785 6.1633 16.4731 6.20406 16.4776 6.23716Z" fill="white"/>
<path d="M19.0452 10.6181C19.0573 10.5989 19.084 10.5461 19.0773 10.51C19.0706 10.474 19.0264 10.3235 18.9406 10.2858C18.8553 10.2481 18.7908 10.3271 18.7499 10.437L18.7215 10.4364C18.7148 10.4526 18.7063 10.4769 18.6996 10.5208C18.6901 10.5843 18.6721 10.6251 18.5633 10.7238C18.4718 10.8065 18.1755 11.005 17.9834 11.0983C17.7912 11.1918 17.6528 11.2724 17.6018 11.2969C17.551 11.321 17.5658 11.33 17.6166 11.3148C17.6673 11.2997 17.9225 11.2175 18.0242 11.1756C18.1257 11.1334 18.2499 11.064 18.3995 10.9669C18.5659 10.859 18.6653 10.7511 18.6988 10.6554C18.7226 10.5872 18.7287 10.56 18.7287 10.56C18.7287 10.56 18.7912 10.5969 18.8972 10.6211C19.0029 10.6454 19.0329 10.6375 19.0452 10.6181ZM18.9018 10.4043C18.9489 10.4222 18.9775 10.4735 18.986 10.5046C18.932 10.5058 18.8326 10.4784 18.7902 10.4592C18.8157 10.4099 18.86 10.3886 18.9018 10.4043Z" fill="white"/>
<path d="M17.9195 10.7241C17.7719 10.7036 17.4001 10.6471 17.3092 10.4313C17.3855 10.3199 17.7372 10.1789 18.1778 10.047C18.6184 9.91531 19.0788 9.74445 19.2026 9.66198C19.2297 9.6528 19.2821 9.65557 19.2821 9.65557C19.3043 9.59176 19.4149 9.36771 19.4218 9.32083C19.2987 9.32781 18.5397 9.38359 18.2026 9.40167C17.8652 9.41984 17.2156 9.41544 16.9991 9.41305C17.1319 9.31757 17.447 9.13121 17.8973 8.97221C17.9557 8.95155 18.0097 8.93289 18.0601 8.91605C18.0975 8.98283 18.1254 9.04884 18.1312 9.10634C18.1598 9.07687 18.1814 8.97919 18.1741 8.87893C18.4366 8.79513 18.5719 8.76738 18.6302 8.7516C18.6671 8.70386 18.7324 8.5108 18.7421 8.37045C18.7029 8.29899 18.58 8.21002 18.4708 8.13358C18.3202 8.02844 18.1579 7.93679 17.9958 7.97687C17.7743 8.03121 17.7299 8.43819 17.7815 8.52448C17.798 8.55174 17.837 8.60006 17.883 8.65966C17.7212 8.72328 17.5519 8.79809 17.4027 8.87673C17.0703 9.05181 16.6993 9.24334 16.591 9.4275L16.56 9.44261C16.5513 9.46003 16.4828 9.74502 16.4729 9.77573C16.542 9.77334 17.0581 9.7743 17.4176 9.7631C17.7769 9.75162 18.091 9.74024 18.2141 9.74024C18.0318 9.78339 17.5543 9.96085 17.417 10.0652C17.2797 10.1699 17.1934 10.329 17.1911 10.6017C17.0631 10.5516 16.8252 10.4371 16.6225 10.1629C16.3965 9.85734 16.4433 9.54307 16.3528 9.13064C16.2214 8.53213 15.9408 8.02681 15.766 7.87221C15.7071 8.08345 15.6996 8.24264 15.6996 8.24264C15.6996 8.24264 15.9185 8.72672 16.0294 9.03573C16.1402 9.34484 16.2349 9.64935 16.2302 9.71757C16.1389 9.91771 15.5987 10.3369 15.1485 10.5823C14.7215 10.815 14.3454 10.84 14.2121 10.6744C14.1859 10.642 14.1681 10.6037 14.1581 10.5604C14.216 10.5333 14.2742 10.5061 14.3338 10.4788C14.7177 10.3039 15.3995 9.93579 15.5593 9.74263C15.7317 9.50853 15.7293 9.17895 15.6282 8.99029C15.5275 8.80173 15.3696 8.58341 15.3573 8.50621C15.3477 8.46976 15.4598 8.52104 15.5261 8.52448C15.5581 8.52209 15.5421 8.47894 15.4733 8.41073C15.4182 8.35639 15.2054 8.18007 15.124 8.11128C15.1037 8.09378 15.0885 8.10086 15.0843 8.11932C15.0685 8.18973 15.0361 8.34051 15.0236 8.41494L15.0323 8.45244C15.0556 8.46631 15.0826 8.48191 15.0956 8.52084C15.114 8.57604 15.1785 8.73007 15.2841 8.92447C15.39 9.11877 15.5429 9.33326 15.5579 9.44156C15.4335 9.60018 14.8064 9.93799 14.1955 10.2164C14.2332 10.0993 14.2928 9.96688 14.3719 9.81984C14.3943 9.79496 14.4148 9.76425 14.4339 9.72962C14.4948 9.61826 14.5007 9.48213 14.4638 9.51092C14.4321 9.54144 14.4093 9.65194 14.3731 9.6594C14.2989 9.67461 14.1948 9.58803 14.221 9.4297C14.2447 9.28686 14.3211 9.1579 14.3541 9.07534C14.3998 8.96111 14.4123 8.84822 14.3777 8.90964C14.2998 9.04683 14.1535 9.3126 14.1086 9.49829C14.0639 9.6837 14.1114 9.81046 14.1898 9.85954C14.219 9.87819 14.2471 9.88403 14.2738 9.88039C14.2202 9.98238 14.154 10.1075 14.1056 10.2568C13.86 10.3667 13.621 10.4649 13.4231 10.5357C12.7119 10.7903 12.2051 10.9403 11.8506 11.0517L11.8367 11.0579C11.8628 10.9736 11.8593 10.9017 11.8313 10.9233C11.7997 10.954 11.777 11.0645 11.7408 11.0718C11.6666 11.087 11.5625 11.0005 11.5886 10.8421C11.6124 10.6992 11.6887 10.5705 11.7218 10.4878C11.7673 10.3737 11.7799 10.2606 11.7453 10.3221C11.6673 10.4593 11.5212 10.7251 11.4763 10.9107C11.4315 11.0962 11.479 11.2229 11.5572 11.2721C11.6547 11.3333 11.7378 11.2582 11.8015 11.1421L11.8239 11.0943C11.846 11.0943 11.8834 11.0892 11.9392 11.0767C12.1016 11.0402 12.5078 10.9813 13.0662 10.9085C13.4797 10.8547 13.7652 10.7411 14.0412 10.6147C14.0399 10.6453 14.0396 10.6764 14.041 10.7084C14.056 11.0874 14.3043 11.1943 14.6439 11.1234C14.9715 11.0546 15.4284 10.7542 15.7022 10.5516C15.9877 10.3404 16.1524 10.1516 16.1944 10.0858C16.2706 9.9244 16.2915 9.74608 16.2966 9.66198C16.3216 9.89369 16.3418 10.2144 16.5609 10.4894C16.7627 10.7426 17.1762 11.0958 17.9539 11.1054C17.9565 11.0129 17.9195 10.7241 17.9195 10.7241ZM17.868 8.376C17.9794 8.25106 18.2169 8.33276 18.3952 8.49119C18.3039 8.51262 18.1798 8.55079 18.0429 8.59968C17.9616 8.50161 17.8708 8.40709 17.868 8.376Z" fill="white"/>
<path d="M13.4948 6.66238C13.5453 6.63932 13.6998 6.56987 13.8663 6.47286C14.0325 6.37652 14.1886 6.25981 14.265 6.18222C14.2943 6.15247 14.3203 6.12922 14.337 6.10157C14.3869 6.12223 14.4212 6.14366 14.4426 6.15208C14.4748 6.16452 14.5178 6.18241 14.5457 6.09076C14.5735 5.9992 14.5366 5.94008 14.4822 5.86948C14.4361 5.81026 14.3631 5.72129 14.3038 5.69919C14.2535 5.68034 14.2296 5.79265 14.2372 5.78988H14.2709L14.2774 5.79304C14.2082 5.82796 14.1546 5.93664 14.1492 5.97481C14.1437 6.01633 14.1516 6.04694 14.2509 6.07249L14.2908 6.08425C14.208 6.18241 14.0535 6.28391 13.9482 6.35586C13.7989 6.45822 13.587 6.58613 13.5267 6.62306C13.4663 6.6598 13.4714 6.67137 13.4948 6.66238ZM14.3921 5.94123L14.3975 5.89215C14.4674 5.97175 14.5192 6.06646 14.514 6.07985C14.482 6.08244 14.442 6.05278 14.3722 6.02293C14.3799 5.9992 14.3865 5.97299 14.3921 5.94123ZM14.1916 5.94132C14.1912 5.9264 14.2181 5.88488 14.275 5.86221C14.3318 5.83934 14.357 5.90315 14.3619 5.98084L14.3451 6.01193L14.2938 5.99423C14.2396 5.97835 14.203 5.96936 14.1916 5.94132Z" fill="white"/>
<path d="M17.219 8.1614C17.301 8.10725 17.5262 7.94461 17.654 7.83804C17.7429 7.76399 17.8473 7.65493 17.9182 7.5627C17.9627 7.5915 18.0042 7.61704 18.042 7.63924C18.1148 7.68181 18.1441 7.74495 18.1441 7.74495C18.1575 7.72429 18.2203 7.61121 18.1957 7.5562C18.181 7.53821 18.0914 7.48588 17.9998 7.42982C18.0463 7.32554 18.1103 7.1452 18.0187 7.08206C17.9403 7.02849 17.8082 7.11717 17.7471 7.23226C17.6966 7.32755 17.69 7.40839 17.7864 7.47459C17.8135 7.49325 17.8395 7.51085 17.8649 7.52759C17.7678 7.63388 17.5887 7.79116 17.4614 7.89821C17.3031 8.03062 17.1535 8.16044 17.1274 8.19144L17.1199 8.20349C17.0853 8.10725 17.0947 8.04784 17.0691 8.07979C16.9583 8.25362 17.0971 8.39445 17.1476 8.53508C17.0793 8.59708 16.9747 8.54015 16.9396 8.48591C16.8649 8.37359 16.8899 8.14552 16.8024 8.11022C16.7799 8.17183 16.7652 8.24042 16.7652 8.24042C16.7652 8.24042 16.8317 8.39665 16.8148 8.49978C16.8044 8.56216 16.7491 8.63515 16.6766 8.6364C16.4825 8.64137 16.5782 8.35417 16.5033 8.19154C16.4881 8.23143 16.4772 8.2741 16.459 8.31103C16.4727 8.35379 16.4803 8.4131 16.4823 8.44745C16.4872 8.51566 16.4816 8.58885 16.4931 8.6474C16.5092 8.72967 16.5549 8.7844 16.6248 8.78947C16.7695 8.80123 16.8356 8.68356 16.8576 8.5876C16.8825 8.68576 17.0743 8.79368 17.1685 8.67332C17.2934 8.51423 17.1935 8.37799 17.1296 8.22837L17.1221 8.20895C17.131 8.2121 17.1644 8.19747 17.219 8.1614ZM17.7852 7.26556C17.8333 7.17649 17.9343 7.16893 17.9647 7.21562C17.9888 7.25274 17.9907 7.32516 17.9545 7.4016C17.8653 7.34563 17.7858 7.29081 17.7852 7.26556Z" fill="white"/>
<path d="M14.0588 7.59507C13.8883 7.58302 13.7965 7.42679 13.744 7.20111C13.6915 6.97542 13.7236 6.6778 13.7379 6.60155C13.7522 6.5254 13.6718 6.56472 13.6405 6.74964C13.6095 6.93438 13.5783 7.22981 13.6883 7.5391C13.798 7.84802 13.9852 7.9633 14.1492 7.92379C14.3132 7.88447 14.4576 7.49959 14.5085 7.32691C14.5593 7.15413 14.7867 6.44953 14.9154 6.41165C14.9334 6.49804 14.8153 6.71473 14.7775 7.04048C14.74 7.36623 14.8054 7.79349 15.2189 7.86926C15.6324 7.94512 15.9129 7.67687 16.0146 7.49041C16.1164 7.30424 16.1639 7.1085 16.1754 7.01015C16.1887 7.26013 16.3592 7.65046 16.6904 7.76173C17.0105 7.86926 17.255 7.77081 17.363 7.63143C17.4589 7.50763 17.537 7.25267 17.5438 7.05712C17.5503 6.86177 17.3814 6.50425 17.3437 6.39041C17.3058 6.27685 17.2862 6.19802 17.2829 6.1587C17.2797 6.11938 17.3684 6.20424 17.4242 6.22088C17.4619 6.22844 17.4487 6.14664 17.4027 6.09049C17.3569 6.03452 17.1088 5.65825 17.0914 5.68447C17.0807 5.70016 16.9814 5.97693 16.9749 6.01931C17.0142 6.04514 17.0597 6.11632 17.0631 6.18453C17.0662 6.25274 17.1319 6.55266 17.1927 6.71932C17.2534 6.88597 17.3715 7.2057 17.3798 7.29362C17.2617 7.37685 16.9958 7.48276 16.7432 7.37542C16.4906 7.26769 16.41 7.11166 16.3822 6.83288C16.3644 6.65474 16.3626 6.3266 16.2991 6.05222C16.2633 5.89714 16.1878 5.73948 16.0982 5.65577C16.0771 5.70714 15.9819 6.0239 15.9819 6.0239C16.0129 6.11479 16.1095 6.42083 16.1064 6.68602C16.103 6.95103 16.0821 7.21039 15.7849 7.3891C15.4879 7.56781 15.0648 7.49663 14.9548 7.21775C14.8448 6.93897 15.0893 6.31177 15.0861 6.14664C15.0828 5.98152 15.0531 5.95865 14.9843 5.98602C14.9154 6.01328 14.7741 6.17247 14.6529 6.43145C14.5314 6.69062 14.4775 6.94959 14.4083 7.16781C14.3395 7.38603 14.2293 7.60713 14.0588 7.59507Z" fill="white"/>
<path d="M9.10828 6.62831C9.31813 6.6131 9.49549 6.454 9.54133 6.41171C9.58727 6.36914 9.61201 6.30571 9.5791 6.32982C9.33634 6.54651 9.01153 6.55263 8.99332 6.51618C9.0016 6.47983 9.08707 6.42071 9.21176 6.33748C9.2875 6.28687 9.35497 6.23941 9.40547 6.17216L9.41923 6.17455C9.51163 6.19483 9.61832 6.2352 9.65091 6.20287C9.704 6.15054 9.71103 6.06482 9.6535 5.9724C9.60487 5.89395 9.49146 5.82096 9.39295 5.76825C9.29464 5.71582 9.2756 5.79953 9.26298 5.82938C9.25087 5.85722 9.25584 5.88094 9.27664 5.88152C9.24498 5.92466 9.22242 5.98025 9.21414 6.02617C9.20876 6.05583 9.2131 6.08013 9.22521 6.10012C9.22873 6.10576 9.24694 6.12806 9.2814 6.14126L9.32413 6.15456C9.25056 6.22248 9.16582 6.27567 9.12132 6.30256C9.04102 6.35106 8.94583 6.43592 8.91634 6.52365C8.88674 6.61166 8.89823 6.64352 9.10828 6.62831ZM9.47925 6.00933L9.48732 5.96456V5.93586C9.55385 5.98427 9.66023 6.07592 9.65371 6.13083C9.61159 6.12126 9.53129 6.10433 9.45503 6.08472C9.46476 6.06185 9.47273 6.03679 9.47925 6.00933ZM9.28202 6.0233C9.23308 5.98427 9.28078 5.94533 9.32413 5.92026C9.38012 5.88793 9.41292 5.91462 9.44158 5.99948C9.43154 6.02378 9.41747 6.04741 9.40091 6.07008C9.35735 6.05659 9.29599 6.03497 9.28202 6.0233Z" fill="white"/>
<path d="M9.73864 8.99805C9.67831 9.05039 9.65493 9.22068 9.66724 9.23091C9.67945 9.24115 9.86799 9.30477 9.89748 9.31855L9.91093 9.26727C10.0007 9.34792 10.1003 9.7503 10.1224 9.75145C10.1446 9.7525 10.1767 9.70591 10.1977 9.59905C10.217 9.49993 10.2364 9.35165 10.2565 9.23091C10.2754 9.12042 10.3047 9.05718 10.3711 9.04455C10.4376 9.03211 10.4869 9.11735 10.5041 9.17533C10.5041 9.17533 10.5507 9.06387 10.5607 8.99461C10.5496 8.95816 10.4461 8.82078 10.3613 8.86622C10.2763 8.91176 10.2231 9.10453 10.2059 9.22508C10.1887 9.34543 10.1754 9.49467 10.1545 9.51859C10.1326 9.41584 10.0623 9.23197 9.97746 9.12864C9.88206 9.01288 9.77051 8.97041 9.73864 8.99805Z" fill="white"/>
<path d="M8.93353 8.79257C9.01228 8.77095 9.18953 8.74378 9.27438 8.69949C9.35437 8.66199 9.49085 8.47907 9.54383 8.41085C9.59671 8.34264 9.59681 8.30839 9.58336 8.29031C9.52924 8.26065 9.1796 8.23128 9.01093 8.27309C8.96437 8.30457 8.8732 8.47323 8.85975 8.50853C8.84609 8.54364 8.86472 8.54144 8.92122 8.52901C8.97782 8.51638 9.24613 8.52317 9.34319 8.54364C9.30273 8.57215 9.02831 8.71078 8.97409 8.74378C8.92008 8.77669 8.90642 8.79602 8.93353 8.79257Z" fill="white"/>
<path d="M25.1896 9.76891C25.1816 9.56446 25.0814 9.25057 24.7006 8.76898C24.5692 8.6027 24.3843 8.3863 24.1892 8.16463C24.1839 8.08906 24.1785 8.01998 24.1736 7.96067C24.148 7.65558 24.0614 7.03316 24.0242 6.66522C24.0151 6.57242 24.0144 6.47369 24.0157 6.42212C24.017 6.38117 24.0465 6.38663 24.0871 6.42872C24.1277 6.47072 24.1902 6.53204 24.2032 6.52783C24.2309 6.51827 24.2068 6.42537 24.1515 6.31526C24.0962 6.20495 23.8873 5.75885 23.8489 5.74153C23.8291 5.73273 23.7306 5.99467 23.7245 6.04825C23.7441 6.08116 23.7946 6.13234 23.7994 6.2813C23.8046 6.43016 23.8944 7.30935 23.9461 7.86337L23.9489 7.89427C23.6573 7.56871 23.3826 7.27185 23.2696 7.1515C23.2501 7.13064 23.2286 7.10692 23.2054 7.08147C23.187 6.93328 23.17 6.79207 23.1583 6.67545C23.1488 6.58284 23.1482 6.48392 23.1498 6.43236C23.1507 6.39151 23.1804 6.39706 23.221 6.43915C23.2618 6.48115 23.3241 6.54247 23.3371 6.53807C23.3648 6.5287 23.3407 6.4358 23.2853 6.32549C23.2301 6.21519 23.0123 5.75885 22.9737 5.74153C22.9541 5.73273 22.8511 6.01553 22.845 6.06872C22.8647 6.10182 22.9151 6.153 22.9201 6.30196C22.9221 6.3652 22.9385 6.55692 22.9605 6.79886C22.7672 6.56916 22.5779 6.32865 22.5644 6.27977C22.5597 6.25566 22.6006 6.27049 22.6762 6.28273C22.7515 6.29479 22.8222 6.31746 22.8101 6.28015C22.8044 6.26283 22.7756 6.21959 22.7035 6.17482C22.6313 6.13014 22.4463 6.01438 22.3087 5.93268C22.1707 5.85088 22.1024 5.7821 22.074 5.80171C22.0599 5.81137 22.0724 6.09178 22.0805 6.1265C22.1152 6.12966 22.1792 6.1554 22.22 6.20993C22.2612 6.26446 22.5248 6.63412 22.7333 6.88411C22.7933 6.95605 22.8873 7.0676 22.9973 7.19637C23.0188 7.42664 23.0414 7.66457 23.06 7.86337C23.1023 8.31684 23.2544 9.5128 23.2559 9.9015C23.1436 10.0068 22.914 10.1538 22.6778 10.1568C22.4415 10.1598 22.312 10.0976 22.2168 9.92198C22.1874 9.86754 22.1601 9.81282 22.133 9.76326C22.0686 9.64549 21.925 9.57939 21.7865 9.61182L21.7654 9.61746L21.7277 9.63554C21.634 9.68462 21.537 9.7669 21.4422 9.89452C21.2783 10.1159 21.1736 10.356 21.0524 10.564C20.926 10.7806 20.829 10.9259 20.6074 10.8912C20.4514 10.8667 20.3329 10.7329 20.2598 10.5682C20.465 10.4262 20.614 10.241 20.723 9.98435C20.8649 9.65076 20.9155 9.27468 20.9028 8.85182C20.8907 8.45384 20.7093 7.51753 20.6614 7.15868C20.6136 6.79963 20.5449 6.50497 20.5529 6.42834C20.5603 6.35439 20.6781 6.5285 20.7384 6.54152C20.7692 6.53463 20.7527 6.42356 20.6941 6.3297C20.6544 6.26589 20.5286 5.97563 20.4462 5.83567C20.4075 5.76947 20.3982 5.7311 20.3802 5.72326C20.3624 5.71513 20.2253 6.00797 20.2418 6.03983C20.2824 6.0978 20.3101 6.12545 20.3186 6.22935C20.3273 6.33324 20.4213 7.09592 20.5034 7.65759C20.5653 8.0814 20.702 8.85125 20.7196 9.42029C20.7254 9.60598 20.6989 9.73925 20.6759 9.81368C20.6169 9.92772 20.5208 10.0544 20.183 10.2948C20.1309 9.95508 20.1876 9.67907 20.1381 9.65353C20.0824 9.65956 20.0735 9.81789 20.0672 10.0132C20.064 10.1035 20.068 10.2284 20.085 10.3626C19.6701 10.6399 19.1221 10.8923 18.8648 11.0271C18.7138 11.1064 18.7682 11.1248 18.896 11.0853C19.0238 11.0456 19.7261 10.8614 20.101 10.6643L20.1413 10.6419C20.1604 10.708 20.1835 10.772 20.2118 10.831C20.338 11.0932 20.5182 11.2488 20.7135 11.2336C20.8777 11.221 20.9968 11.0452 21.1007 10.8356C21.2057 10.6234 21.3832 10.2205 21.5572 10.0706C21.6241 10.0128 21.6932 9.96704 21.7604 9.93958C21.7604 9.93958 21.8793 9.89988 21.9887 9.97134C22.0279 9.99717 22.0572 10.0339 22.0757 10.075C22.1189 10.1695 22.1699 10.2896 22.2742 10.3903C22.458 10.5673 22.7535 10.5307 22.9751 10.4278C23.1965 10.3247 23.3095 10.164 23.3587 9.97306C23.4428 9.64635 23.4293 9.31161 23.4133 9.01427C23.3947 8.67493 23.3405 8.32813 23.3097 7.96067C23.2997 7.84252 23.2804 7.67816 23.2582 7.49993C23.474 7.74905 23.6981 8.0019 23.8341 8.14014C23.881 8.18788 23.9304 8.24088 23.9812 8.29685C24.0218 8.85307 24.0608 9.54906 24.0814 9.84114C24.1018 10.1322 24.0887 10.498 24.0863 10.5616C24.0838 10.6252 24.1192 10.6143 24.17 10.4731C24.2381 10.2836 24.2808 9.78661 24.2659 9.45703C24.257 9.26119 24.2375 8.90416 24.2163 8.56644C24.3839 8.76553 24.5429 8.96653 24.6464 9.10219C24.8304 9.34308 24.9993 9.62952 25.0584 9.80823C25.1174 9.98713 25.1239 10.0401 25.1354 10.072C25.1469 10.1038 25.1977 9.97335 25.1896 9.76891Z" fill="white"/>
<path d="M22.0835 16.5738C22.0669 16.5263 22.016 16.4914 21.9552 16.4914C21.8943 16.4914 21.8435 16.5263 21.8268 16.5738H21.2505C21.2447 16.5099 21.2504 16.4457 21.2685 16.3831L22.4582 16.3824L22.4913 16.4382C22.5213 16.4885 22.5591 16.534 22.6029 16.5738L22.0835 16.5738ZM22.8711 16.021H21.4414C21.5513 15.9417 21.6089 15.8259 21.5935 15.7089C21.5836 15.6351 21.5105 15.58 21.4214 15.5725H21.3766C21.2682 15.5831 21.1896 15.6612 21.201 15.7471L21.2054 15.7801L21.2107 15.8308C21.2165 15.8946 21.2109 15.9586 21.1929 16.021H10.625C10.7819 16.2493 11.068 16.3893 11.377 16.3891L21.0204 16.3832C20.9101 16.4626 20.8523 16.5785 20.8678 16.6958C20.8792 16.7816 20.9762 16.8427 21.0847 16.8321C21.193 16.8215 21.2716 16.7434 21.2603 16.6575L21.2559 16.6246H21.8226C21.8326 16.6799 21.8879 16.7223 21.9552 16.7223C22.0225 16.7223 22.0777 16.6799 22.0878 16.6246H22.6643V16.6232C22.7846 16.7086 22.9376 16.7577 23.0994 16.7577C23.2517 16.7577 23.375 16.652 23.375 16.5214V16.4531C23.375 16.2145 23.1495 16.0209 22.8711 16.0209" fill="white"/>
</g>
</svg>
