<svg width="34" height="22" viewBox="0 0 34 22" fill="none" xmlns="http://www.w3.org/2000/svg">
<mask id="mask0_1883_3843" style="mask-type:alpha" maskUnits="userSpaceOnUse" x="0" y="0" width="34" height="22">
<path d="M0 3.54496C0 2.0722 1.19391 0.878296 2.66667 0.878296H31.3333C32.8061 0.878296 34 2.0722 34 3.54496V19.2116C34 20.6844 32.8061 21.8783 31.3333 21.8783H2.66667C1.19391 21.8783 0 20.6844 0 19.2116V3.54496Z" fill="#1E50A0"/>
</mask>
<g mask="url(#mask0_1883_3843)">
<path d="M0 0.878296H34V21.8783H0V0.878296Z" fill="#005430"/>
<path d="M36 -1.32739H-2V24.0059H36V-1.32739Z" fill="#003399"/>
<path d="M16.9922 1.48621L16.5573 2.82473L17.2265 3.04219L16.9922 1.48621Z" fill="#FFCC00"/>
<path d="M16.9922 1.48621L17.4271 2.82473L16.7578 3.04219L16.9922 1.48621Z" fill="#FFCC00"/>
<path d="M18.3262 2.47009L16.9236 2.45911L16.9293 3.15216L18.3262 2.47009Z" fill="#FFCC00"/>
<path d="M18.332 2.46509L17.1981 3.28649L16.7794 2.7109L18.332 2.46509Z" fill="#FFCC00"/>
<path d="M17.8242 4.03723L17.387 2.70651L16.717 2.92081L17.8242 4.03723Z" fill="#FFCC00"/>
<path d="M17.8301 4.03174L16.6818 3.19496L17.0887 2.63429L17.8301 4.03174Z" fill="#FFCC00"/>
<path d="M15.666 2.47009L17.0686 2.45911L17.0629 3.15216L15.666 2.47009Z" fill="#FFCC00"/>
<path d="M15.6602 2.46509L16.7941 3.28649L17.2128 2.7109L15.6602 2.46509Z" fill="#FFCC00"/>
<path d="M16.1699 4.03723L16.6071 2.70651L17.2772 2.92081L16.1699 4.03723Z" fill="#FFCC00"/>
<path d="M16.1641 4.03174L17.3123 3.19496L16.9054 2.63429L16.1641 4.03174Z" fill="#FFCC00"/>
<path d="M16.9922 18.3749L16.5573 19.7134L17.2265 19.9309L16.9922 18.3749Z" fill="#FFCC00"/>
<path d="M16.9922 18.3749L17.4271 19.7134L16.7578 19.9309L16.9922 18.3749Z" fill="#FFCC00"/>
<path d="M18.3262 19.3585L16.9236 19.3475L16.9293 20.0406L18.3262 19.3585Z" fill="#FFCC00"/>
<path d="M18.332 19.3535L17.1981 20.1749L16.7794 19.5993L18.332 19.3535Z" fill="#FFCC00"/>
<path d="M17.8242 20.9254L17.387 19.5947L16.717 19.809L17.8242 20.9254Z" fill="#FFCC00"/>
<path d="M17.8301 20.9199L16.6818 20.0831L17.0887 19.5225L17.8301 20.9199Z" fill="#FFCC00"/>
<path d="M15.666 19.3585L17.0686 19.3475L17.0629 20.0406L15.666 19.3585Z" fill="#FFCC00"/>
<path d="M15.6602 19.3535L16.7941 20.1749L17.2128 19.5993L15.6602 19.3535Z" fill="#FFCC00"/>
<path d="M16.1699 20.9254L16.6071 19.5947L17.2772 19.809L16.1699 20.9254Z" fill="#FFCC00"/>
<path d="M16.1641 20.9199L17.3123 20.0831L16.9054 19.5225L16.1641 20.9199Z" fill="#FFCC00"/>
<path d="M8.55273 9.93286L8.11782 11.2714L8.78708 11.4888L8.55273 9.93286Z" fill="#FFCC00"/>
<path d="M8.55273 9.93286L8.98765 11.2714L8.31839 11.4888L8.55273 9.93286Z" fill="#FFCC00"/>
<path d="M9.88672 10.9158L8.48415 10.9048L8.48981 11.5978L9.88672 10.9158Z" fill="#FFCC00"/>
<path d="M9.89258 10.9108L8.75864 11.7322L8.33995 11.1566L9.89258 10.9108Z" fill="#FFCC00"/>
<path d="M9.38281 12.4828L8.94561 11.1521L8.27555 11.3664L9.38281 12.4828Z" fill="#FFCC00"/>
<path d="M9.38867 12.4773L8.24042 11.6405L8.6473 11.0798L9.38867 12.4773Z" fill="#FFCC00"/>
<path d="M7.22656 10.9158L8.62913 10.9048L8.62347 11.5978L7.22656 10.9158Z" fill="#FFCC00"/>
<path d="M7.2207 10.9108L8.35464 11.7322L8.77333 11.1566L7.2207 10.9108Z" fill="#FFCC00"/>
<path d="M7.72461 12.4828L8.16182 11.1521L8.83187 11.3664L7.72461 12.4828Z" fill="#FFCC00"/>
<path d="M7.71875 12.4773L8.867 11.6405L8.46012 11.0798L7.71875 12.4773Z" fill="#FFCC00"/>
<path d="M11.9434 5.16333L13.0918 4.32634L12.6851 3.7659L11.9434 5.16333Z" fill="#FFCC00"/>
<path d="M11.9473 5.16907L12.3846 3.83822L13.0545 4.05235L11.9473 5.16907Z" fill="#FFCC00"/>
<path d="M11.4336 3.59509L12.5699 4.41824L12.9835 3.84924L11.4336 3.59509Z" fill="#FFCC00"/>
<path d="M11.4375 3.6001L12.8566 3.58942L12.8519 4.27888L11.4375 3.6001Z" fill="#FFCC00"/>
<path d="M12.7793 2.61792L12.3419 3.94876L13.0118 4.16291L12.7793 2.61792Z" fill="#FFCC00"/>
<path d="M12.7793 2.61792L13.2029 3.93814L12.5233 4.1622L12.7793 2.61792Z" fill="#FFCC00"/>
<path d="M13.5977 5.16199L12.4614 4.33888L12.8753 3.76964L13.5977 5.16199Z" fill="#FFCC00"/>
<path d="M13.6035 5.15686L13.1799 3.83797L12.4999 4.06188L13.6035 5.15686Z" fill="#FFCC00"/>
<path d="M14.1094 3.58582L12.9626 4.4206L12.555 3.85888L14.1094 3.58582Z" fill="#FFCC00"/>
<path d="M14.1094 3.58997L12.6877 3.59824L12.6838 4.28802L14.1094 3.58997Z" fill="#FFCC00"/>
<path d="M10.5098 8.26135L10.0724 6.9305L9.40252 7.14464L10.5098 8.26135Z" fill="#FFCC00"/>
<path d="M10.5156 8.25574L9.36721 7.41874L9.77392 6.85831L10.5156 8.25574Z" fill="#FFCC00"/>
<path d="M8.86914 8.25452L10.0057 7.43116L9.5919 6.86204L8.86914 8.25452Z" fill="#FFCC00"/>
<path d="M8.86523 8.24963L9.28916 6.93051L9.969 7.1543L8.86523 8.24963Z" fill="#FFCC00"/>
<path d="M8.35156 6.67615L9.49788 7.51054L9.90571 6.9486L8.35156 6.67615Z" fill="#FFCC00"/>
<path d="M8.35156 6.68005L9.77277 6.68787L9.77643 7.37787L8.35156 6.68005Z" fill="#FFCC00"/>
<path d="M11.0254 6.68677L9.88894 7.51007L9.47537 6.94118L11.0254 6.68677Z" fill="#FFCC00"/>
<path d="M11.0215 6.69165L9.60198 6.68111L9.60665 7.37037L11.0215 6.69165Z" fill="#FFCC00"/>
<path d="M9.68359 5.70935L10.1209 7.03974L9.45085 7.2539L9.68359 5.70935Z" fill="#FFCC00"/>
<path d="M9.68359 5.70935L9.26026 7.02897L9.94017 7.25317L9.68359 5.70935Z" fill="#FFCC00"/>
<path d="M11.0117 15.1515L9.60391 15.127L9.61756 15.8126L11.0117 15.1515Z" fill="#FFCC00"/>
<path d="M11.0254 15.1406L9.90052 15.9533L9.47895 15.3762L11.0254 15.1406Z" fill="#FFCC00"/>
<path d="M10.5176 16.7139L10.0684 15.3737L9.40659 15.5804L10.5176 16.7139Z" fill="#FFCC00"/>
<path d="M10.5332 16.6996L9.37433 15.8527L9.77384 15.2986L10.5332 16.6996Z" fill="#FFCC00"/>
<path d="M8.86914 16.7004L9.99973 15.8816L9.58066 15.3081L8.86914 16.7004Z" fill="#FFCC00"/>
<path d="M8.85938 16.6926L9.27659 15.3762L9.96173 15.6025L8.85938 16.6926Z" fill="#FFCC00"/>
<path d="M9.67773 14.1554L10.1274 15.4992L9.46785 15.7074L9.67773 14.1554Z" fill="#FFCC00"/>
<path d="M9.67578 14.1553L9.26148 15.4767L9.94706 15.7042L9.67578 14.1553Z" fill="#FFCC00"/>
<path d="M8.3457 15.127L9.76162 15.1345L9.76818 15.8277L8.3457 15.127Z" fill="#FFCC00"/>
<path d="M8.3457 15.1232L9.49476 15.9575L9.90085 15.3942L8.3457 15.1232Z" fill="#FFCC00"/>
<path d="M14.0996 18.2415L12.6918 18.217L12.7055 18.9025L14.0996 18.2415Z" fill="#FFCC00"/>
<path d="M14.1133 18.2306L12.9884 19.0433L12.5668 18.4662L14.1133 18.2306Z" fill="#FFCC00"/>
<path d="M13.6055 19.8066L13.1563 18.4665L12.4945 18.6731L13.6055 19.8066Z" fill="#FFCC00"/>
<path d="M13.6211 19.7924L12.4622 18.9455L12.8617 18.3914L13.6211 19.7924Z" fill="#FFCC00"/>
<path d="M11.957 19.7933L13.0876 18.9745L12.6686 18.401L11.957 19.7933Z" fill="#FFCC00"/>
<path d="M11.9473 19.7855L12.3645 18.4691L13.0496 18.6954L11.9473 19.7855Z" fill="#FFCC00"/>
<path d="M12.7617 17.2445L13.2114 18.5883L12.5518 18.7965L12.7617 17.2445Z" fill="#FFCC00"/>
<path d="M12.7598 17.2445L12.3455 18.566L13.031 18.7934L12.7598 17.2445Z" fill="#FFCC00"/>
<path d="M11.4355 18.2159L12.8515 18.2235L12.858 18.9167L11.4355 18.2159Z" fill="#FFCC00"/>
<path d="M11.4355 18.2122L12.5846 19.0465L12.9907 18.4832L11.4355 18.2122Z" fill="#FFCC00"/>
<path d="M25.4492 9.93262L25.8841 11.2711L25.2149 11.4886L25.4492 9.93262Z" fill="#FFCC00"/>
<path d="M25.4492 9.93262L25.0143 11.2711L25.6836 11.4886L25.4492 9.93262Z" fill="#FFCC00"/>
<path d="M24.1094 10.9155L25.5119 10.9045L25.5063 11.5976L24.1094 10.9155Z" fill="#FFCC00"/>
<path d="M24.1035 10.9105L25.2375 11.7319L25.6561 11.1563L24.1035 10.9105Z" fill="#FFCC00"/>
<path d="M24.6172 12.4839L25.0544 11.1532L25.7244 11.3675L24.6172 12.4839Z" fill="#FFCC00"/>
<path d="M24.6113 12.4784L25.7596 11.6416L25.3527 11.0809L24.6113 12.4784Z" fill="#FFCC00"/>
<path d="M26.7793 10.9155L25.3767 10.9045L25.3824 11.5976L26.7793 10.9155Z" fill="#FFCC00"/>
<path d="M26.7852 10.9105L25.6512 11.7319L25.2325 11.1563L26.7852 10.9105Z" fill="#FFCC00"/>
<path d="M26.2773 12.4827L25.8401 11.1519L25.1701 11.3662L26.2773 12.4827Z" fill="#FFCC00"/>
<path d="M26.2832 12.4772L25.135 11.6404L25.5418 11.0797L26.2832 12.4772Z" fill="#FFCC00"/>
<path d="M22.0547 5.16479L20.9063 4.3278L21.313 3.76737L22.0547 5.16479Z" fill="#FFCC00"/>
<path d="M22.0508 5.17053L21.6134 3.83968L20.9435 4.05382L22.0508 5.17053Z" fill="#FFCC00"/>
<path d="M22.5664 3.59668L21.4301 4.41983L21.0165 3.85083L22.5664 3.59668Z" fill="#FFCC00"/>
<path d="M22.5625 3.60181L21.1434 3.59113L21.1481 4.28059L22.5625 3.60181Z" fill="#FFCC00"/>
<path d="M21.2207 2.61829L21.6581 3.94912L20.9882 4.16327L21.2207 2.61829Z" fill="#FFCC00"/>
<path d="M21.2207 2.61841L20.7971 3.93863L21.4767 4.16268L21.2207 2.61841Z" fill="#FFCC00"/>
<path d="M20.3926 5.16614L21.5289 4.34303L21.1149 3.77379L20.3926 5.16614Z" fill="#FFCC00"/>
<path d="M20.3887 5.16101L20.8123 3.84212L21.4923 4.06603L20.3887 5.16101Z" fill="#FFCC00"/>
<path d="M19.8789 3.58752L21.0257 4.42231L21.4333 3.86058L19.8789 3.58752Z" fill="#FFCC00"/>
<path d="M19.8789 3.59167L21.3006 3.59995L21.3045 4.28973L19.8789 3.59167Z" fill="#FFCC00"/>
<path d="M23.4902 8.26184L23.9276 6.93099L24.5975 7.14513L23.4902 8.26184Z" fill="#FFCC00"/>
<path d="M23.4844 8.2561L24.6328 7.41911L24.2261 6.85868L23.4844 8.2561Z" fill="#FFCC00"/>
<path d="M25.1406 8.25488L24.0041 7.43153L24.4179 6.8624L25.1406 8.25488Z" fill="#FFCC00"/>
<path d="M25.1445 8.24988L24.7206 6.93076L24.0408 7.15455L25.1445 8.24988Z" fill="#FFCC00"/>
<path d="M25.6484 6.67786L24.5021 7.51225L24.0943 6.95031L25.6484 6.67786Z" fill="#FFCC00"/>
<path d="M25.6484 6.68176L24.2272 6.68958L24.2236 7.37958L25.6484 6.68176Z" fill="#FFCC00"/>
<path d="M22.9688 6.68713L24.1052 7.51043L24.5188 6.94154L22.9688 6.68713Z" fill="#FFCC00"/>
<path d="M22.9727 6.69214L24.3922 6.6816L24.3875 7.37086L22.9727 6.69214Z" fill="#FFCC00"/>
<path d="M24.3203 5.70862L23.883 7.03901L24.5531 7.25317L24.3203 5.70862Z" fill="#FFCC00"/>
<path d="M24.3203 5.70862L24.7436 7.02824L24.0637 7.25244L24.3203 5.70862Z" fill="#FFCC00"/>
<path d="M22.9883 15.15L24.3961 15.1256L24.3824 15.8111L22.9883 15.15Z" fill="#FFCC00"/>
<path d="M22.9746 15.1392L24.0995 15.9519L24.5211 15.3748L22.9746 15.1392Z" fill="#FFCC00"/>
<path d="M23.4844 16.7148L23.9336 15.3747L24.5954 15.5813L23.4844 16.7148Z" fill="#FFCC00"/>
<path d="M23.4688 16.7006L24.6276 15.8537L24.2281 15.2996L23.4688 16.7006Z" fill="#FFCC00"/>
<path d="M25.127 16.7014L23.9964 15.8826L24.4154 15.309L25.127 16.7014Z" fill="#FFCC00"/>
<path d="M25.1367 16.6936L24.7195 15.3772L24.0344 15.6035L25.1367 16.6936Z" fill="#FFCC00"/>
<path d="M24.3223 14.1547L23.8726 15.4984L24.5321 15.7067L24.3223 14.1547Z" fill="#FFCC00"/>
<path d="M24.3242 14.1545L24.7385 15.476L24.0529 15.7035L24.3242 14.1545Z" fill="#FFCC00"/>
<path d="M25.6504 15.1261L24.2345 15.1336L24.2279 15.8268L25.6504 15.1261Z" fill="#FFCC00"/>
<path d="M25.6504 15.1223L24.5013 15.9566L24.0952 15.3933L25.6504 15.1223Z" fill="#FFCC00"/>
<path d="M19.8984 18.2408L21.3062 18.2164L21.2926 18.9019L19.8984 18.2408Z" fill="#FFCC00"/>
<path d="M19.8848 18.23L21.0096 19.0427L21.4312 18.4656L19.8848 18.23Z" fill="#FFCC00"/>
<path d="M20.3906 19.8048L20.8398 18.4646L21.5016 18.6713L20.3906 19.8048Z" fill="#FFCC00"/>
<path d="M20.375 19.7905L21.5339 18.9437L21.1344 18.3895L20.375 19.7905Z" fill="#FFCC00"/>
<path d="M22.0371 19.79L20.9065 18.9712L21.3256 18.3977L22.0371 19.79Z" fill="#FFCC00"/>
<path d="M22.0469 19.7822L21.6297 18.4658L20.9445 18.6921L22.0469 19.7822Z" fill="#FFCC00"/>
<path d="M21.2383 17.2426L20.7886 18.5863L21.4482 18.7946L21.2383 17.2426Z" fill="#FFCC00"/>
<path d="M21.2402 17.2426L21.6545 18.564L20.969 18.7915L21.2402 17.2426Z" fill="#FFCC00"/>
<path d="M22.5645 18.2168L21.1485 18.2243L21.142 18.9175L22.5645 18.2168Z" fill="#FFCC00"/>
<path d="M22.5645 18.213L21.4154 19.0473L21.0093 18.484L22.5645 18.213Z" fill="#FFCC00"/>
<path d="M-1 -1.1217H8L8.37125 -0.606079H25.6287L26 -1.1217H35V23.8783H26L25.6287 23.3627H8.37125L8 23.8783H-1V-1.1217Z" fill="#FF0000"/>
<path d="M8 -7.6217H26V30.3783H8V-7.6217ZM17.3375 18.9908L17.1687 15.7545C17.1663 15.7013 17.1758 15.6482 17.1966 15.5992C17.2174 15.5501 17.2489 15.5063 17.2888 15.4711C17.3288 15.4358 17.3761 15.41 17.4274 15.3954C17.4786 15.3809 17.5325 15.378 17.585 15.387L20.8062 15.9533L20.3713 14.7533C20.3536 14.7055 20.3513 14.6535 20.3648 14.6044C20.3782 14.5553 20.4067 14.5116 20.4462 14.4795L23.975 11.622L23.18 11.2508C23.1263 11.2254 23.0837 11.1813 23.0602 11.1268C23.0368 11.0722 23.034 11.011 23.0525 10.9545L23.75 8.80955L21.7175 9.2408C21.6624 9.25228 21.6051 9.24436 21.5552 9.21839C21.5053 9.19242 21.4659 9.14999 21.4437 9.0983L21.05 8.17205L19.4637 9.87455C19.4275 9.9128 19.3798 9.93827 19.3278 9.94713C19.2758 9.95598 19.2224 9.94776 19.1755 9.92367C19.1286 9.89959 19.0908 9.86096 19.0677 9.81356C19.0446 9.76616 19.0375 9.71256 19.0475 9.6608L19.8125 5.7158L18.5862 6.42455C18.5575 6.44142 18.5255 6.4522 18.4924 6.45622C18.4593 6.46025 18.4257 6.45743 18.3937 6.44793C18.3617 6.43844 18.332 6.42248 18.3064 6.40104C18.2808 6.3796 18.2599 6.35314 18.245 6.3233L17 3.8783L15.755 6.3233C15.7401 6.35314 15.7192 6.3796 15.6936 6.40104C15.668 6.42248 15.6383 6.43844 15.6063 6.44793C15.5743 6.45743 15.5407 6.46025 15.5076 6.45622C15.4745 6.4522 15.4425 6.44142 15.4137 6.42455L14.1875 5.7158L14.9525 9.6608C14.9625 9.71256 14.9554 9.76616 14.9323 9.81356C14.9092 9.86096 14.8714 9.89959 14.8245 9.92367C14.7776 9.94776 14.7242 9.95598 14.6722 9.94713C14.6202 9.93827 14.5725 9.9128 14.5362 9.87455L12.95 8.17205L12.5563 9.0983C12.5341 9.14999 12.4947 9.19242 12.4448 9.21839C12.3949 9.24436 12.3376 9.25228 12.2825 9.2408L10.25 8.80955L10.9475 10.9545C10.966 11.011 10.9632 11.0722 10.9398 11.1268C10.9163 11.1813 10.8737 11.2254 10.82 11.2508L10.025 11.622L13.5538 14.4795C13.5933 14.5116 13.6218 14.5553 13.6352 14.6044C13.6487 14.6535 13.6464 14.7055 13.6287 14.7533L13.1937 15.9533L16.415 15.387C16.4675 15.378 16.5214 15.3809 16.5726 15.3954C16.6239 15.41 16.6712 15.4358 16.7112 15.4711C16.7511 15.5063 16.7826 15.5501 16.8034 15.5992C16.8242 15.6482 16.8337 15.7013 16.8313 15.7545L16.6625 18.9908H17.3375Z" fill="white"/>
</g>
</svg>
