<svg width="34" height="22" viewBox="0 0 34 22" fill="none" xmlns="http://www.w3.org/2000/svg">
<g clip-path="url(#clip0_1883_1099)">
<path d="M34 0.816406H0V21.8164H34V0.816406Z" fill="#509E2F"/>
<path d="M34 0.816406H0V14.8164H34V0.816406Z" fill="#EF3340"/>
<path d="M34 0.816406H0V7.81641H34V0.816406Z" fill="#00B5E2"/>
<path d="M15.9816 14.3664C17.6661 14.3664 19.0316 13.0008 19.0316 11.3164C19.0316 9.63189 17.6661 8.26636 15.9816 8.26636C14.2972 8.26636 12.9316 9.63189 12.9316 11.3164C12.9316 13.0008 14.2972 14.3664 15.9816 14.3664Z" fill="white"/>
<path d="M16.6608 13.8581C18.0645 13.8581 19.2025 12.7202 19.2025 11.3164C19.2025 9.91272 18.0645 8.77478 16.6608 8.77478C15.2571 8.77478 14.1191 9.91272 14.1191 11.3164C14.1191 12.7202 15.2571 13.8581 16.6608 13.8581Z" fill="#EF3340"/>
<path d="M19.3702 9.62207L19.6944 10.5338L20.5684 10.1184L20.153 10.9923L21.0647 11.3165L20.153 11.6407L20.5684 12.5147L19.6944 12.0992L19.3702 13.011L19.046 12.0992L18.1721 12.5147L18.5875 11.6407L17.6758 11.3165L18.5875 10.9923L18.1721 10.1184L19.046 10.5338L19.3702 9.62207Z" fill="white"/>
</g>
<defs>
<clipPath id="clip0_1883_1099">
<rect y="0.816406" width="34" height="21" rx="3" fill="white"/>
</clipPath>
</defs>
</svg>
